<?xml version="1.0" encoding="UTF-8"?>
<svg xmlns="http://www.w3.org/2000/svg" width="1200" height="600" viewBox="0 0 1200 600">

    <style>
      .month-line  { stroke: #c00; stroke-width: 2; }
      .week-line   { stroke: #f88; stroke-width: 1; }
      .current     { stroke: #0a0; stroke-width: 2; }
      .sonar       { animation: pulse 2s ease-out infinite; }
      @keyframes pulse {
        0%   { r: 4;   opacity: 0.8; }
        100% { r: 20;  opacity: 0;   }
      }
      text { font-family: sans-serif; }
    </style>
    
<line x1="50.0" y1="50" x2="50.0" y2="500" class="week-line" />
<line x1="70.75471698113208" y1="50" x2="70.75471698113208" y2="500" class="week-line" />
<line x1="91.50943396226415" y1="50" x2="91.50943396226415" y2="500" class="week-line" />
<line x1="112.26415094339623" y1="50" x2="112.26415094339623" y2="500" class="week-line" />
<line x1="133.0188679245283" y1="50" x2="133.0188679245283" y2="500" class="week-line" />
<line x1="153.77358490566039" y1="50" x2="153.77358490566039" y2="500" class="week-line" />
<line x1="174.52830188679246" y1="50" x2="174.52830188679246" y2="500" class="week-line" />
<line x1="195.28301886792454" y1="50" x2="195.28301886792454" y2="500" class="week-line" />
<line x1="216.03773584905662" y1="50" x2="216.03773584905662" y2="500" class="week-line" />
<line x1="236.7924528301887" y1="50" x2="236.7924528301887" y2="500" class="week-line" />
<line x1="257.54716981132077" y1="50" x2="257.54716981132077" y2="500" class="week-line" />
<line x1="278.3018867924528" y1="50" x2="278.3018867924528" y2="500" class="week-line" />
<line x1="299.0566037735849" y1="50" x2="299.0566037735849" y2="500" class="week-line" />
<line x1="319.81132075471703" y1="50" x2="319.81132075471703" y2="500" class="week-line" />
<line x1="340.5660377358491" y1="50" x2="340.5660377358491" y2="500" class="week-line" />
<line x1="361.3207547169811" y1="50" x2="361.3207547169811" y2="500" class="week-line" />
<line x1="382.07547169811323" y1="50" x2="382.07547169811323" y2="500" class="current" />
<line x1="402.83018867924534" y1="50" x2="402.83018867924534" y2="500" class="week-line" />
<line x1="423.5849056603774" y1="50" x2="423.5849056603774" y2="500" class="week-line" />
<line x1="444.33962264150944" y1="50" x2="444.33962264150944" y2="500" class="week-line" />
<line x1="465.09433962264154" y1="50" x2="465.09433962264154" y2="500" class="week-line" />
<line x1="485.84905660377365" y1="50" x2="485.84905660377365" y2="500" class="week-line" />
<line x1="506.6037735849057" y1="50" x2="506.6037735849057" y2="500" class="week-line" />
<line x1="527.3584905660377" y1="50" x2="527.3584905660377" y2="500" class="week-line" />
<line x1="548.1132075471698" y1="50" x2="548.1132075471698" y2="500" class="week-line" />
<line x1="568.867924528302" y1="50" x2="568.867924528302" y2="500" class="week-line" />
<line x1="589.6226415094341" y1="50" x2="589.6226415094341" y2="500" class="week-line" />
<line x1="610.377358490566" y1="50" x2="610.377358490566" y2="500" class="week-line" />
<line x1="631.1320754716982" y1="50" x2="631.1320754716982" y2="500" class="week-line" />
<line x1="651.8867924528303" y1="50" x2="651.8867924528303" y2="500" class="week-line" />
<line x1="672.6415094339623" y1="50" x2="672.6415094339623" y2="500" class="week-line" />
<line x1="693.3962264150944" y1="50" x2="693.3962264150944" y2="500" class="week-line" />
<line x1="714.1509433962265" y1="50" x2="714.1509433962265" y2="500" class="week-line" />
<line x1="734.9056603773586" y1="50" x2="734.9056603773586" y2="500" class="week-line" />
<line x1="755.6603773584907" y1="50" x2="755.6603773584907" y2="500" class="week-line" />
<line x1="776.4150943396227" y1="50" x2="776.4150943396227" y2="500" class="week-line" />
<line x1="797.1698113207548" y1="50" x2="797.1698113207548" y2="500" class="week-line" />
<line x1="817.9245283018869" y1="50" x2="817.9245283018869" y2="500" class="week-line" />
<line x1="838.6792452830189" y1="50" x2="838.6792452830189" y2="500" class="week-line" />
<line x1="859.433962264151" y1="50" x2="859.433962264151" y2="500" class="week-line" />
<line x1="880.1886792452831" y1="50" x2="880.1886792452831" y2="500" class="week-line" />
<line x1="900.9433962264152" y1="50" x2="900.9433962264152" y2="500" class="week-line" />
<line x1="921.6981132075473" y1="50" x2="921.6981132075473" y2="500" class="week-line" />
<line x1="942.4528301886793" y1="50" x2="942.4528301886793" y2="500" class="week-line" />
<line x1="963.2075471698114" y1="50" x2="963.2075471698114" y2="500" class="week-line" />
<line x1="983.9622641509435" y1="50" x2="983.9622641509435" y2="500" class="week-line" />
<line x1="1004.7169811320755" y1="50" x2="1004.7169811320755" y2="500" class="week-line" />
<line x1="1025.4716981132076" y1="50" x2="1025.4716981132076" y2="500" class="week-line" />
<line x1="1046.2264150943397" y1="50" x2="1046.2264150943397" y2="500" class="week-line" />
<line x1="1066.9811320754718" y1="50" x2="1066.9811320754718" y2="500" class="week-line" />
<line x1="1087.735849056604" y1="50" x2="1087.735849056604" y2="500" class="week-line" />
<line x1="1108.490566037736" y1="50" x2="1108.490566037736" y2="500" class="week-line" />
<line x1="1129.2452830188681" y1="50" x2="1129.2452830188681" y2="500" class="week-line" />
<line x1="1150.0" y1="50" x2="1150.0" y2="500" class="week-line" />
<line x1="50.0" y1="50" x2="50.0" y2="500" class="month-line" />
<text x="50.0" y="45" text-anchor="middle" font-size="18" fill="#c00">Jan</text>
<line x1="133.0188679245283" y1="50" x2="133.0188679245283" y2="500" class="month-line" />
<text x="133.0188679245283" y="45" text-anchor="middle" font-size="18" fill="#c00">Feb</text>
<line x1="216.03773584905662" y1="50" x2="216.03773584905662" y2="500" class="month-line" />
<text x="216.03773584905662" y="45" text-anchor="middle" font-size="18" fill="#c00">Mar</text>
<line x1="299.0566037735849" y1="50" x2="299.0566037735849" y2="500" class="month-line" />
<text x="299.0566037735849" y="45" text-anchor="middle" font-size="18" fill="#c00">Apr</text>
<line x1="402.83018867924534" y1="50" x2="402.83018867924534" y2="500" class="month-line" />
<text x="402.83018867924534" y="45" text-anchor="middle" font-size="18" fill="#c00">May</text>
<line x1="485.84905660377365" y1="50" x2="485.84905660377365" y2="500" class="month-line" />
<text x="485.84905660377365" y="45" text-anchor="middle" font-size="18" fill="#c00">Jun</text>
<line x1="568.867924528302" y1="50" x2="568.867924528302" y2="500" class="month-line" />
<text x="568.867924528302" y="45" text-anchor="middle" font-size="18" fill="#c00">Jul</text>
<line x1="672.6415094339623" y1="50" x2="672.6415094339623" y2="500" class="month-line" />
<text x="672.6415094339623" y="45" text-anchor="middle" font-size="18" fill="#c00">Aug</text>
<line x1="755.6603773584907" y1="50" x2="755.6603773584907" y2="500" class="month-line" />
<text x="755.6603773584907" y="45" text-anchor="middle" font-size="18" fill="#c00">Sep</text>
<line x1="859.433962264151" y1="50" x2="859.433962264151" y2="500" class="month-line" />
<text x="859.433962264151" y="45" text-anchor="middle" font-size="18" fill="#c00">Oct</text>
<line x1="942.4528301886793" y1="50" x2="942.4528301886793" y2="500" class="month-line" />
<text x="942.4528301886793" y="45" text-anchor="middle" font-size="18" fill="#c00">Nov</text>
<line x1="1025.4716981132076" y1="50" x2="1025.4716981132076" y2="500" class="month-line" />
<text x="1025.4716981132076" y="45" text-anchor="middle" font-size="18" fill="#c00">Dec</text>
<line x1="50" y1="95.0" x2="1150" y2="95.0" stroke="#A3B18A" stroke-width="2" />
<line x1="50" y1="275.0" x2="1150" y2="275.0" stroke="#EEE2B7" stroke-width="2" />
<line x1="50" y1="455.0" x2="1150" y2="455.0" stroke="#CDB4DB" stroke-width="2" />
<g>
  <circle cx="382.07547169811323" cy="455.0" r="4" fill="#81B29A" />
  <circle class="sonar" cx="382.07547169811323" cy="455.0" fill="#81B29A" />
  <text x="382.07547169811323" y="447.0" text-anchor="middle" font-size="18" fill="#000">Introduction Java</text>
</g>
<g>
  <circle cx="755.6603773584907" cy="275.0" r="4" fill="#AAB7F7" />
  <circle class="sonar" cx="755.6603773584907" cy="275.0" fill="#AAB7F7" />
  <text x="755.6603773584907" y="267.0" text-anchor="middle" font-size="18" fill="#000">Adobe - AEM</text>
</g>
<g>
  <circle cx="527.3584905660377" cy="95.0" r="4" fill="#AAB7F7" />
  <circle class="sonar" cx="527.3584905660377" cy="95.0" fill="#AAB7F7" />
  <text x="527.3584905660377" y="87.0" text-anchor="middle" font-size="18" fill="#000">Master 1</text>
</g>
<line x1="50.0" y1="520" x2="80.0" y2="520" stroke="#A3B18A" stroke-width="4" />
<text x="85.0" y="526" text-anchor="start" font-size="18" fill="#000">École (Epitech)</text>
<line x1="233.33333333333334" y1="520" x2="263.33333333333337" y2="520" stroke="#EEE2B7" stroke-width="4" />
<text x="268.33333333333337" y="526" text-anchor="start" font-size="18" fill="#000">Entreprise (CGI)</text>
<line x1="416.6666666666667" y1="520" x2="446.6666666666667" y2="520" stroke="#CDB4DB" stroke-width="4" />
<text x="451.6666666666667" y="526" text-anchor="start" font-size="18" fill="#000">Personnel</text>
<circle cx="600.0" cy="520" r="5" fill="#81B29A" />
<text x="610.0" y="526" text-anchor="start" font-size="18" fill="#000">Certification</text>
<circle cx="783.3333333333334" cy="520" r="5" fill="#AAB7F7" />
<text x="793.3333333333334" y="526" text-anchor="start" font-size="18" fill="#000">Diplôme</text>
<circle cx="966.6666666666667" cy="520" r="5" fill="#F3DFA2" />
<text x="976.6666666666667" y="526" text-anchor="start" font-size="18" fill="#000">Projet</text>
</svg>