<?xml version="1.0" encoding="UTF-8"?>
<svg xmlns="http://www.w3.org/2000/svg" viewBox="0 0 1200 360" width="100%" preserveAspectRatio="xMidYMid meet">

<style>
  text {
    font-family: -apple-system, BlinkMacSystemFont, "Segoe UI", sans-serif;
  }

  .week-line {
    stroke: #F3B3B3;
    stroke-width: 1;
  }

  .month-line {
    stroke: #DC2626;
    stroke-width: 2;
  }

  .current-line {
    stroke: #16A34A;
    stroke-width: 3;
  }

  .event-label {
    fill: #111827;
    font-size: 14px;
    font-weight: 600;
  }

  .month-label {
    fill: #DC2626;
    font-size: 15px;
    font-weight: 700;
  }

  .legend-label {
    fill: #374151;
    font-size: 15px;
  }
</style>

<rect x="0" y="0" width="1200" height="360" rx="18" fill="#F8F8EA" stroke="#D9D9C3" />
<line x1="70.00" y1="70" x2="70.00" y2="235" class="week-line" />
<line x1="90.33" y1="70" x2="90.33" y2="235" class="week-line" />
<line x1="110.66" y1="70" x2="110.66" y2="235" class="week-line" />
<line x1="130.99" y1="70" x2="130.99" y2="235" class="week-line" />
<line x1="151.32" y1="70" x2="151.32" y2="235" class="week-line" />
<line x1="171.64" y1="70" x2="171.64" y2="235" class="week-line" />
<line x1="191.97" y1="70" x2="191.97" y2="235" class="week-line" />
<line x1="212.30" y1="70" x2="212.30" y2="235" class="week-line" />
<line x1="232.63" y1="70" x2="232.63" y2="235" class="week-line" />
<line x1="252.96" y1="70" x2="252.96" y2="235" class="week-line" />
<line x1="273.29" y1="70" x2="273.29" y2="235" class="week-line" />
<line x1="293.62" y1="70" x2="293.62" y2="235" class="week-line" />
<line x1="313.95" y1="70" x2="313.95" y2="235" class="week-line" />
<line x1="334.27" y1="70" x2="334.27" y2="235" class="week-line" />
<line x1="354.60" y1="70" x2="354.60" y2="235" class="week-line" />
<line x1="374.93" y1="70" x2="374.93" y2="235" class="week-line" />
<line x1="395.26" y1="70" x2="395.26" y2="235" class="week-line" />
<line x1="415.59" y1="70" x2="415.59" y2="235" class="week-line" />
<line x1="435.92" y1="70" x2="435.92" y2="235" class="week-line" />
<line x1="456.25" y1="70" x2="456.25" y2="235" class="week-line" />
<line x1="476.58" y1="70" x2="476.58" y2="235" class="week-line" />
<line x1="496.90" y1="70" x2="496.90" y2="235" class="week-line" />
<line x1="517.23" y1="70" x2="517.23" y2="235" class="week-line" />
<line x1="537.56" y1="70" x2="537.56" y2="235" class="week-line" />
<line x1="557.89" y1="70" x2="557.89" y2="235" class="week-line" />
<line x1="578.22" y1="70" x2="578.22" y2="235" class="week-line" />
<line x1="598.55" y1="70" x2="598.55" y2="235" class="week-line" />
<line x1="618.88" y1="70" x2="618.88" y2="235" class="week-line" />
<line x1="639.21" y1="70" x2="639.21" y2="235" class="week-line" />
<line x1="659.53" y1="70" x2="659.53" y2="235" class="week-line" />
<line x1="679.86" y1="70" x2="679.86" y2="235" class="week-line" />
<line x1="700.19" y1="70" x2="700.19" y2="235" class="week-line" />
<line x1="720.52" y1="70" x2="720.52" y2="235" class="week-line" />
<line x1="740.85" y1="70" x2="740.85" y2="235" class="week-line" />
<line x1="761.18" y1="70" x2="761.18" y2="235" class="week-line" />
<line x1="781.51" y1="70" x2="781.51" y2="235" class="week-line" />
<line x1="801.84" y1="70" x2="801.84" y2="235" class="week-line" />
<line x1="822.16" y1="70" x2="822.16" y2="235" class="week-line" />
<line x1="842.49" y1="70" x2="842.49" y2="235" class="week-line" />
<line x1="862.82" y1="70" x2="862.82" y2="235" class="week-line" />
<line x1="883.15" y1="70" x2="883.15" y2="235" class="week-line" />
<line x1="903.48" y1="70" x2="903.48" y2="235" class="week-line" />
<line x1="923.81" y1="70" x2="923.81" y2="235" class="week-line" />
<line x1="944.14" y1="70" x2="944.14" y2="235" class="week-line" />
<line x1="964.47" y1="70" x2="964.47" y2="235" class="week-line" />
<line x1="984.79" y1="70" x2="984.79" y2="235" class="week-line" />
<line x1="1005.12" y1="70" x2="1005.12" y2="235" class="week-line" />
<line x1="1025.45" y1="70" x2="1025.45" y2="235" class="week-line" />
<line x1="1045.78" y1="70" x2="1045.78" y2="235" class="week-line" />
<line x1="1066.11" y1="70" x2="1066.11" y2="235" class="week-line" />
<line x1="1086.44" y1="70" x2="1086.44" y2="235" class="week-line" />
<line x1="1106.77" y1="70" x2="1106.77" y2="235" class="week-line" />
<line x1="1127.10" y1="70" x2="1127.10" y2="235" class="week-line" />
<line x1="1130.00" y1="70" x2="1130.00" y2="235" class="week-line" />
<line x1="70.00" y1="70" x2="70.00" y2="235" class="month-line" />
<text x="70.00" y="58" text-anchor="middle" class="month-label">Jan</text>
<line x1="160.03" y1="70" x2="160.03" y2="235" class="month-line" />
<text x="160.03" y="58" text-anchor="middle" class="month-label">Fév</text>
<line x1="241.34" y1="70" x2="241.34" y2="235" class="month-line" />
<text x="241.34" y="58" text-anchor="middle" class="month-label">Mar</text>
<line x1="331.37" y1="70" x2="331.37" y2="235" class="month-line" />
<text x="331.37" y="58" text-anchor="middle" class="month-label">Avr</text>
<line x1="418.49" y1="70" x2="418.49" y2="235" class="month-line" />
<text x="418.49" y="58" text-anchor="middle" class="month-label">Mai</text>
<line x1="508.52" y1="70" x2="508.52" y2="235" class="month-line" />
<text x="508.52" y="58" text-anchor="middle" class="month-label">Juin</text>
<line x1="595.64" y1="70" x2="595.64" y2="235" class="month-line" />
<text x="595.64" y="58" text-anchor="middle" class="month-label">Juil</text>
<line x1="685.67" y1="70" x2="685.67" y2="235" class="month-line" />
<text x="685.67" y="58" text-anchor="middle" class="month-label">Aoû</text>
<line x1="775.70" y1="70" x2="775.70" y2="235" class="month-line" />
<text x="775.70" y="58" text-anchor="middle" class="month-label">Sep</text>
<line x1="862.82" y1="70" x2="862.82" y2="235" class="month-line" />
<text x="862.82" y="58" text-anchor="middle" class="month-label">Oct</text>
<line x1="952.85" y1="70" x2="952.85" y2="235" class="month-line" />
<text x="952.85" y="58" text-anchor="middle" class="month-label">Nov</text>
<line x1="1039.97" y1="70" x2="1039.97" y2="235" class="month-line" />
<text x="1039.97" y="58" text-anchor="middle" class="month-label">Déc</text>
<line x1="610.16" y1="65" x2="610.16" y2="240" class="current-line" />
<line x1="70" y1="111.25" x2="1130" y2="111.25" stroke="#2F81F7" stroke-width="4" stroke-linecap="round" />
<line x1="70" y1="152.50" x2="1130" y2="152.50" stroke="#F97316" stroke-width="4" stroke-linecap="round" />
<line x1="70" y1="193.75" x2="1130" y2="193.75" stroke="#EC4899" stroke-width="4" stroke-linecap="round" />
<g>
  <circle cx="264.58" cy="152.50" r="6" fill="#3FB950" />
  <circle cx="264.58" cy="152.50" r="6" fill="#3FB950" opacity="0.35"><animate attributeName="r" values="6;22" dur="2s" repeatCount="indefinite" /><animate attributeName="opacity" values="0.35;0" dur="2s" repeatCount="indefinite" /></circle>
  <text x="264.58" y="138.50" text-anchor="middle" class="event-label">Adobe Business Practitionner</text>
</g>
<g>
  <circle cx="345.89" cy="193.75" r="6" fill="#3FB950" />
  <circle cx="345.89" cy="193.75" r="6" fill="#3FB950" opacity="0.35"><animate attributeName="r" values="6;22" dur="2s" repeatCount="indefinite" /><animate attributeName="opacity" values="0.35;0" dur="2s" repeatCount="indefinite" /></circle>
  <text x="345.89" y="179.75" text-anchor="middle" class="event-label">Meta React Basics</text>
</g>
<g>
  <circle cx="682.77" cy="152.50" r="6" fill="#3FB950" />
  <circle cx="682.77" cy="152.50" r="6" fill="#3FB950" opacity="0.35"><animate attributeName="r" values="6;22" dur="2s" repeatCount="indefinite" /><animate attributeName="opacity" values="0.35;0" dur="2s" repeatCount="indefinite" /></circle>
  <text x="682.77" y="138.50" text-anchor="middle" class="event-label">Adobe Experience Manager Developer Sites Professional</text>
</g>
<g>
  <circle cx="845.40" cy="111.25" r="6" fill="#22D3EE" />
  <circle cx="845.40" cy="111.25" r="6" fill="#22D3EE" opacity="0.35"><animate attributeName="r" values="6;22" dur="2s" repeatCount="indefinite" /><animate attributeName="opacity" values="0.35;0" dur="2s" repeatCount="indefinite" /></circle>
  <text x="845.40" y="97.25" text-anchor="middle" class="event-label">Master Architecte de Systèmes d’Information</text>
</g>
<line x1="75.00" y1="280" x2="105.00" y2="280" stroke="#2F81F7" stroke-width="4" stroke-linecap="round" />
<text x="115.00" y="285" text-anchor="start" class="legend-label">École (Epitech)</text>
<line x1="251.67" y1="280" x2="281.67" y2="280" stroke="#F97316" stroke-width="4" stroke-linecap="round" />
<text x="291.67" y="285" text-anchor="start" class="legend-label">Entreprise (CGI)</text>
<line x1="428.33" y1="280" x2="458.33" y2="280" stroke="#EC4899" stroke-width="4" stroke-linecap="round" />
<text x="468.33" y="285" text-anchor="start" class="legend-label">Personnel</text>
<circle cx="605.00" cy="280" r="6" fill="#3FB950" />
<text x="621.00" y="285" text-anchor="start" class="legend-label">Certification</text>
<circle cx="781.67" cy="280" r="6" fill="#22D3EE" />
<text x="797.67" y="285" text-anchor="start" class="legend-label">Diplôme</text>
<circle cx="958.33" cy="280" r="6" fill="#EAB308" />
<text x="974.33" y="285" text-anchor="start" class="legend-label">Projet</text>
</svg>