<?xml version="1.0" encoding="UTF-8"?>
<svg xmlns="http://www.w3.org/2000/svg"      viewBox="0 0 900 380"      width="100%"      preserveAspectRatio="xMidYMid meet">

    <style>
      .month-line  { stroke: #c00; stroke-width: 2; }
      .week-line   { stroke: #f88; stroke-width: 1; }
      .current     { stroke: #0a0; stroke-width: 2; }
      .sonar       { animation: pulse 2s ease-out infinite; }
      @keyframes pulse {
        0%   { r: 4;   opacity: 0.8; }
        100% { r: 20;  opacity: 0;   }
      }
      text { font-family: sans-serif; }
    </style>
    
<line x1="50.0" y1="50" x2="50.0" y2="280" class="week-line" />
<line x1="65.09433962264151" y1="50" x2="65.09433962264151" y2="280" class="week-line" />
<line x1="80.18867924528303" y1="50" x2="80.18867924528303" y2="280" class="week-line" />
<line x1="95.28301886792453" y1="50" x2="95.28301886792453" y2="280" class="week-line" />
<line x1="110.37735849056604" y1="50" x2="110.37735849056604" y2="280" class="week-line" />
<line x1="125.47169811320755" y1="50" x2="125.47169811320755" y2="280" class="week-line" />
<line x1="140.56603773584905" y1="50" x2="140.56603773584905" y2="280" class="week-line" />
<line x1="155.66037735849056" y1="50" x2="155.66037735849056" y2="280" class="week-line" />
<line x1="170.75471698113208" y1="50" x2="170.75471698113208" y2="280" class="week-line" />
<line x1="185.8490566037736" y1="50" x2="185.8490566037736" y2="280" class="week-line" />
<line x1="200.9433962264151" y1="50" x2="200.9433962264151" y2="280" class="week-line" />
<line x1="216.03773584905662" y1="50" x2="216.03773584905662" y2="280" class="week-line" />
<line x1="231.1320754716981" y1="50" x2="231.1320754716981" y2="280" class="week-line" />
<line x1="246.22641509433961" y1="50" x2="246.22641509433961" y2="280" class="week-line" />
<line x1="261.3207547169811" y1="50" x2="261.3207547169811" y2="280" class="week-line" />
<line x1="276.41509433962267" y1="50" x2="276.41509433962267" y2="280" class="week-line" />
<line x1="291.50943396226415" y1="50" x2="291.50943396226415" y2="280" class="current" />
<line x1="306.60377358490564" y1="50" x2="306.60377358490564" y2="280" class="week-line" />
<line x1="321.6981132075472" y1="50" x2="321.6981132075472" y2="280" class="week-line" />
<line x1="336.79245283018867" y1="50" x2="336.79245283018867" y2="280" class="week-line" />
<line x1="351.8867924528302" y1="50" x2="351.8867924528302" y2="280" class="week-line" />
<line x1="366.9811320754717" y1="50" x2="366.9811320754717" y2="280" class="week-line" />
<line x1="382.07547169811323" y1="50" x2="382.07547169811323" y2="280" class="week-line" />
<line x1="397.1698113207547" y1="50" x2="397.1698113207547" y2="280" class="week-line" />
<line x1="412.2641509433962" y1="50" x2="412.2641509433962" y2="280" class="week-line" />
<line x1="427.35849056603774" y1="50" x2="427.35849056603774" y2="280" class="week-line" />
<line x1="442.45283018867923" y1="50" x2="442.45283018867923" y2="280" class="week-line" />
<line x1="457.54716981132077" y1="50" x2="457.54716981132077" y2="280" class="week-line" />
<line x1="472.64150943396226" y1="50" x2="472.64150943396226" y2="280" class="week-line" />
<line x1="487.7358490566038" y1="50" x2="487.7358490566038" y2="280" class="week-line" />
<line x1="502.8301886792453" y1="50" x2="502.8301886792453" y2="280" class="week-line" />
<line x1="517.9245283018868" y1="50" x2="517.9245283018868" y2="280" class="week-line" />
<line x1="533.0188679245283" y1="50" x2="533.0188679245283" y2="280" class="week-line" />
<line x1="548.1132075471698" y1="50" x2="548.1132075471698" y2="280" class="week-line" />
<line x1="563.2075471698113" y1="50" x2="563.2075471698113" y2="280" class="week-line" />
<line x1="578.3018867924528" y1="50" x2="578.3018867924528" y2="280" class="week-line" />
<line x1="593.3962264150944" y1="50" x2="593.3962264150944" y2="280" class="week-line" />
<line x1="608.4905660377359" y1="50" x2="608.4905660377359" y2="280" class="week-line" />
<line x1="623.5849056603773" y1="50" x2="623.5849056603773" y2="280" class="week-line" />
<line x1="638.6792452830189" y1="50" x2="638.6792452830189" y2="280" class="week-line" />
<line x1="653.7735849056604" y1="50" x2="653.7735849056604" y2="280" class="week-line" />
<line x1="668.8679245283018" y1="50" x2="668.8679245283018" y2="280" class="week-line" />
<line x1="683.9622641509434" y1="50" x2="683.9622641509434" y2="280" class="week-line" />
<line x1="699.0566037735849" y1="50" x2="699.0566037735849" y2="280" class="week-line" />
<line x1="714.1509433962265" y1="50" x2="714.1509433962265" y2="280" class="week-line" />
<line x1="729.2452830188679" y1="50" x2="729.2452830188679" y2="280" class="week-line" />
<line x1="744.3396226415094" y1="50" x2="744.3396226415094" y2="280" class="week-line" />
<line x1="759.433962264151" y1="50" x2="759.433962264151" y2="280" class="week-line" />
<line x1="774.5283018867924" y1="50" x2="774.5283018867924" y2="280" class="week-line" />
<line x1="789.622641509434" y1="50" x2="789.622641509434" y2="280" class="week-line" />
<line x1="804.7169811320755" y1="50" x2="804.7169811320755" y2="280" class="week-line" />
<line x1="819.811320754717" y1="50" x2="819.811320754717" y2="280" class="week-line" />
<line x1="834.9056603773585" y1="50" x2="834.9056603773585" y2="280" class="week-line" />
<line x1="850.0" y1="50" x2="850.0" y2="280" class="week-line" />
<line x1="50.0" y1="50" x2="50.0" y2="280" class="month-line" />
<text x="50.0" y="45" text-anchor="middle" font-size="16" fill="#c00">Jan</text>
<line x1="110.37735849056604" y1="50" x2="110.37735849056604" y2="280" class="month-line" />
<text x="110.37735849056604" y="45" text-anchor="middle" font-size="16" fill="#c00">Feb</text>
<line x1="170.75471698113208" y1="50" x2="170.75471698113208" y2="280" class="month-line" />
<text x="170.75471698113208" y="45" text-anchor="middle" font-size="16" fill="#c00">Mar</text>
<line x1="231.1320754716981" y1="50" x2="231.1320754716981" y2="280" class="month-line" />
<text x="231.1320754716981" y="45" text-anchor="middle" font-size="16" fill="#c00">Apr</text>
<line x1="306.60377358490564" y1="50" x2="306.60377358490564" y2="280" class="month-line" />
<text x="306.60377358490564" y="45" text-anchor="middle" font-size="16" fill="#c00">May</text>
<line x1="366.9811320754717" y1="50" x2="366.9811320754717" y2="280" class="month-line" />
<text x="366.9811320754717" y="45" text-anchor="middle" font-size="16" fill="#c00">Jun</text>
<line x1="427.35849056603774" y1="50" x2="427.35849056603774" y2="280" class="month-line" />
<text x="427.35849056603774" y="45" text-anchor="middle" font-size="16" fill="#c00">Jul</text>
<line x1="502.8301886792453" y1="50" x2="502.8301886792453" y2="280" class="month-line" />
<text x="502.8301886792453" y="45" text-anchor="middle" font-size="16" fill="#c00">Aug</text>
<line x1="563.2075471698113" y1="50" x2="563.2075471698113" y2="280" class="month-line" />
<text x="563.2075471698113" y="45" text-anchor="middle" font-size="16" fill="#c00">Sep</text>
<line x1="638.6792452830189" y1="50" x2="638.6792452830189" y2="280" class="month-line" />
<text x="638.6792452830189" y="45" text-anchor="middle" font-size="16" fill="#c00">Oct</text>
<line x1="699.0566037735849" y1="50" x2="699.0566037735849" y2="280" class="month-line" />
<text x="699.0566037735849" y="45" text-anchor="middle" font-size="16" fill="#c00">Nov</text>
<line x1="759.433962264151" y1="50" x2="759.433962264151" y2="280" class="month-line" />
<text x="759.433962264151" y="45" text-anchor="middle" font-size="16" fill="#c00">Dec</text>
<line x1="50" y1="73.0" x2="850" y2="73.0" stroke="#A3B18A" stroke-width="2" />
<line x1="50" y1="165.0" x2="850" y2="165.0" stroke="#EEE2B7" stroke-width="2" />
<line x1="50" y1="257.0" x2="850" y2="257.0" stroke="#CDB4DB" stroke-width="2" />
<g>
  <circle cx="291.50943396226415" cy="257.0" r="4" fill="#81B29A" />
  <circle class="sonar" cx="291.50943396226415" cy="257.0" fill="#81B29A" />
  <text x="291.50943396226415" y="249.0" text-anchor="middle" font-size="14" fill="#000">Introduction Java</text>
</g>
<g>
  <circle cx="563.2075471698113" cy="165.0" r="4" fill="#AAB7F7" />
  <circle class="sonar" cx="563.2075471698113" cy="165.0" fill="#AAB7F7" />
  <text x="563.2075471698113" y="157.0" text-anchor="middle" font-size="14" fill="#000">Adobe - AEM</text>
</g>
<g>
  <circle cx="397.1698113207547" cy="73.0" r="4" fill="#AAB7F7" />
  <circle class="sonar" cx="397.1698113207547" cy="73.0" fill="#AAB7F7" />
  <text x="397.1698113207547" y="65.0" text-anchor="middle" font-size="14" fill="#000">Master 1</text>
</g>
<line x1="50.0" y1="300" x2="80.0" y2="300" stroke="#A3B18A" stroke-width="4" />
<text x="85.0" y="306" text-anchor="start" font-size="16" fill="#000">École (Epitech)</text>
<line x1="183.33333333333334" y1="300" x2="213.33333333333334" y2="300" stroke="#EEE2B7" stroke-width="4" />
<text x="218.33333333333334" y="306" text-anchor="start" font-size="16" fill="#000">Entreprise (CGI)</text>
<line x1="316.6666666666667" y1="300" x2="346.6666666666667" y2="300" stroke="#CDB4DB" stroke-width="4" />
<text x="351.6666666666667" y="306" text-anchor="start" font-size="16" fill="#000">Personnel</text>
<circle cx="450.0" cy="300" r="5" fill="#81B29A" />
<text x="460.0" y="306" text-anchor="start" font-size="16" fill="#000">Certification</text>
<circle cx="583.3333333333334" cy="300" r="5" fill="#AAB7F7" />
<text x="593.3333333333334" y="306" text-anchor="start" font-size="16" fill="#000">Diplôme</text>
<circle cx="716.6666666666667" cy="300" r="5" fill="#F3DFA2" />
<text x="726.6666666666667" y="306" text-anchor="start" font-size="16" fill="#000">Projet</text>
</svg>