<svg width="1250" height="400" viewBox="0 0 1250 400" fill="none" xmlns="http://www.w3.org/2000/svg">
<path d="M341.984 312H339.104V289.152H351.872V291.68H341.984V299.776H351.264V302.304H341.984V312ZM362.002 289.152C363.9 289.152 365.458 289.397 366.674 289.888C367.911 290.357 368.828 291.072 369.426 292.032C370.023 292.992 370.322 294.197 370.322 295.648C370.322 296.864 370.098 297.877 369.65 298.688C369.202 299.499 368.626 300.149 367.922 300.64C367.239 301.109 366.514 301.483 365.746 301.76L372.018 312H368.658L363.122 302.56H358.578V312H355.698V289.152H362.002ZM361.842 291.648H358.578V300.128H362.002C363.239 300.128 364.252 299.968 365.042 299.648C365.831 299.307 366.407 298.816 366.77 298.176C367.154 297.536 367.346 296.736 367.346 295.776C367.346 294.773 367.143 293.973 366.738 293.376C366.354 292.779 365.756 292.341 364.946 292.064C364.135 291.787 363.1 291.648 361.842 291.648ZM395.54 300.544C395.54 302.315 395.316 303.925 394.868 305.376C394.42 306.805 393.748 308.043 392.852 309.088C391.977 310.133 390.879 310.933 389.556 311.488C388.255 312.043 386.74 312.32 385.012 312.32C383.22 312.32 381.663 312.043 380.34 311.488C379.017 310.912 377.919 310.112 377.044 309.088C376.169 308.043 375.519 306.795 375.092 305.344C374.665 303.893 374.452 302.283 374.452 300.512C374.452 298.165 374.836 296.117 375.604 294.368C376.372 292.619 377.535 291.253 379.092 290.272C380.671 289.291 382.655 288.8 385.044 288.8C387.327 288.8 389.247 289.291 390.804 290.272C392.361 291.232 393.535 292.597 394.324 294.368C395.135 296.117 395.54 298.176 395.54 300.544ZM377.492 300.544C377.492 302.464 377.759 304.117 378.292 305.504C378.825 306.891 379.647 307.957 380.756 308.704C381.887 309.451 383.305 309.824 385.012 309.824C386.74 309.824 388.148 309.451 389.236 308.704C390.345 307.957 391.167 306.891 391.7 305.504C392.233 304.117 392.5 302.464 392.5 300.544C392.5 297.664 391.903 295.413 390.708 293.792C389.513 292.149 387.625 291.328 385.044 291.328C383.316 291.328 381.887 291.701 380.756 292.448C379.647 293.173 378.825 294.229 378.292 295.616C377.759 296.981 377.492 298.624 377.492 300.544ZM418.716 312H415.356L403.132 293.024H403.004C403.025 293.408 403.047 293.835 403.068 294.304C403.111 294.773 403.143 295.285 403.164 295.84C403.185 296.373 403.207 296.928 403.228 297.504C403.249 298.08 403.26 298.656 403.26 299.232V312H400.604V289.152H403.932L416.124 308.064H416.252C416.231 307.808 416.209 307.456 416.188 307.008C416.167 306.539 416.145 306.027 416.124 305.472C416.103 304.896 416.081 304.309 416.06 303.712C416.039 303.115 416.028 302.56 416.028 302.048V289.152H418.716V312ZM432.149 312H429.269V291.68H422.133V289.152H439.253V291.68H432.149V312ZM455.466 312H442.698V289.152H455.466V291.68H445.578V298.816H454.89V301.312H445.578V309.472H455.466V312ZM478.591 312H475.231L463.007 293.024H462.879C462.9 293.408 462.922 293.835 462.943 294.304C462.986 294.773 463.018 295.285 463.039 295.84C463.06 296.373 463.082 296.928 463.103 297.504C463.124 298.08 463.135 298.656 463.135 299.232V312H460.479V289.152H463.807L475.999 308.064H476.127C476.106 307.808 476.084 307.456 476.063 307.008C476.042 306.539 476.02 306.027 475.999 305.472C475.978 304.896 475.956 304.309 475.935 303.712C475.914 303.115 475.903 302.56 475.903 302.048V289.152H478.591V312ZM503.096 300.352C503.096 302.912 502.616 305.056 501.656 306.784C500.717 308.512 499.362 309.813 497.592 310.688C495.821 311.563 493.677 312 491.16 312H484.792V289.152H491.832C494.136 289.152 496.13 289.579 497.816 290.432C499.501 291.285 500.802 292.544 501.72 294.208C502.637 295.851 503.096 297.899 503.096 300.352ZM500.056 300.448C500.056 298.421 499.714 296.757 499.032 295.456C498.37 294.155 497.389 293.195 496.088 292.576C494.808 291.936 493.25 291.616 491.416 291.616H487.672V309.536H490.776C493.869 309.536 496.184 308.779 497.72 307.264C499.277 305.728 500.056 303.456 500.056 300.448ZM534.783 300.352C534.783 302.912 534.303 305.056 533.343 306.784C532.404 308.512 531.05 309.813 529.279 310.688C527.508 311.563 525.364 312 522.847 312H516.479V289.152H523.519C525.823 289.152 527.818 289.579 529.503 290.432C531.188 291.285 532.49 292.544 533.407 294.208C534.324 295.851 534.783 297.899 534.783 300.352ZM531.743 300.448C531.743 298.421 531.402 296.757 530.719 295.456C530.058 294.155 529.076 293.195 527.775 292.576C526.495 291.936 524.938 291.616 523.103 291.616H519.359V309.536H522.463C525.556 309.536 527.871 308.779 529.407 307.264C530.964 305.728 531.743 303.456 531.743 300.448ZM552.622 312H539.854V289.152H552.622V291.68H542.734V298.816H552.046V301.312H542.734V309.472H552.622V312ZM573.731 289.152L565.571 312H562.691L554.531 289.152H557.539L562.691 303.808C562.926 304.427 563.129 305.024 563.299 305.6C563.47 306.176 563.619 306.731 563.747 307.264C563.897 307.776 564.025 308.288 564.131 308.8C564.238 308.288 564.355 307.765 564.483 307.232C564.633 306.699 564.793 306.144 564.963 305.568C565.155 304.992 565.358 304.384 565.571 303.744L570.691 289.152H573.731ZM589.591 312H576.823V289.152H589.591V291.68H579.703V298.816H589.015V301.312H579.703V309.472H589.591V312ZM594.604 312V289.152H597.484V309.44H607.468V312H594.604ZM630.696 300.544C630.696 302.315 630.472 303.925 630.024 305.376C629.576 306.805 628.904 308.043 628.008 309.088C627.134 310.133 626.035 310.933 624.712 311.488C623.411 312.043 621.896 312.32 620.168 312.32C618.376 312.32 616.819 312.043 615.496 311.488C614.174 310.912 613.075 310.112 612.2 309.088C611.326 308.043 610.675 306.795 610.248 305.344C609.822 303.893 609.608 302.283 609.608 300.512C609.608 298.165 609.992 296.117 610.76 294.368C611.528 292.619 612.691 291.253 614.248 290.272C615.827 289.291 617.811 288.8 620.2 288.8C622.483 288.8 624.403 289.291 625.96 290.272C627.518 291.232 628.691 292.597 629.48 294.368C630.291 296.117 630.696 298.176 630.696 300.544ZM612.648 300.544C612.648 302.464 612.915 304.117 613.448 305.504C613.982 306.891 614.803 307.957 615.912 308.704C617.043 309.451 618.462 309.824 620.168 309.824C621.896 309.824 623.304 309.451 624.392 308.704C625.502 307.957 626.323 306.891 626.856 305.504C627.39 304.117 627.656 302.464 627.656 300.544C627.656 297.664 627.059 295.413 625.864 293.792C624.67 292.149 622.782 291.328 620.2 291.328C618.472 291.328 617.043 291.701 615.912 292.448C614.803 293.173 613.982 294.229 613.448 295.616C612.915 296.981 612.648 298.624 612.648 300.544ZM641.808 289.152C644.795 289.152 646.971 289.739 648.336 290.912C649.702 292.085 650.384 293.739 650.384 295.872C650.384 296.811 650.224 297.717 649.904 298.592C649.606 299.445 649.104 300.213 648.4 300.896C647.696 301.579 646.758 302.123 645.584 302.528C644.411 302.912 642.971 303.104 641.264 303.104H638.64V312H635.76V289.152H641.808ZM641.552 291.616H638.64V300.64H640.944C642.395 300.64 643.6 300.491 644.56 300.192C645.52 299.872 646.235 299.371 646.704 298.688C647.174 298.005 647.408 297.109 647.408 296C647.408 294.528 646.939 293.429 646 292.704C645.062 291.979 643.579 291.616 641.552 291.616ZM667.903 312H655.135V289.152H667.903V291.68H658.015V298.816H667.327V301.312H658.015V309.472H667.903V312ZM679.22 289.152C681.119 289.152 682.677 289.397 683.893 289.888C685.13 290.357 686.047 291.072 686.645 292.032C687.242 292.992 687.541 294.197 687.541 295.648C687.541 296.864 687.317 297.877 686.869 298.688C686.421 299.499 685.845 300.149 685.141 300.64C684.458 301.109 683.733 301.483 682.965 301.76L689.237 312H685.877L680.341 302.56H675.797V312H672.917V289.152H679.22ZM679.061 291.648H675.797V300.128H679.22C680.458 300.128 681.471 299.968 682.261 299.648C683.05 299.307 683.626 298.816 683.989 298.176C684.373 297.536 684.565 296.736 684.565 295.776C684.565 294.773 684.362 293.973 683.957 293.376C683.573 292.779 682.975 292.341 682.165 292.064C681.354 291.787 680.319 291.648 679.061 291.648ZM708.069 280.08H711.135V322.122H708.069V280.08ZM730.796 289.152C732.695 289.152 734.284 289.333 735.564 289.696C736.865 290.059 737.836 290.656 738.476 291.488C739.137 292.32 739.468 293.429 739.468 294.816C739.468 295.712 739.297 296.512 738.956 297.216C738.636 297.899 738.145 298.475 737.484 298.944C736.844 299.392 736.055 299.701 735.116 299.872V300.032C736.076 300.181 736.94 300.459 737.708 300.864C738.497 301.269 739.116 301.845 739.564 302.592C740.012 303.339 740.236 304.309 740.236 305.504C740.236 306.891 739.916 308.075 739.276 309.056C738.636 310.016 737.719 310.752 736.524 311.264C735.351 311.755 733.943 312 732.3 312H724.268V289.152H730.796ZM731.372 298.88C733.335 298.88 734.679 298.571 735.404 297.952C736.129 297.312 736.492 296.373 736.492 295.136C736.492 293.877 736.044 292.981 735.148 292.448C734.273 291.893 732.865 291.616 730.924 291.616H727.148V298.88H731.372ZM727.148 301.28V309.568H731.756C733.783 309.568 735.191 309.173 735.98 308.384C736.769 307.595 737.164 306.56 737.164 305.28C737.164 304.469 736.983 303.765 736.62 303.168C736.279 302.571 735.692 302.112 734.86 301.792C734.049 301.451 732.94 301.28 731.532 301.28H727.148ZM759.417 312L756.665 304.928H747.609L744.889 312H741.977L750.905 289.056H753.497L762.393 312H759.417ZM753.241 295.456C753.177 295.285 753.07 294.976 752.921 294.528C752.771 294.08 752.622 293.621 752.473 293.152C752.345 292.661 752.238 292.288 752.153 292.032C752.046 292.459 751.929 292.896 751.801 293.344C751.694 293.771 751.577 294.165 751.449 294.528C751.342 294.891 751.246 295.2 751.161 295.456L748.569 302.368H755.801L753.241 295.456ZM774.685 291.36C773.469 291.36 772.37 291.573 771.389 292C770.408 292.405 769.576 293.013 768.893 293.824C768.21 294.613 767.688 295.584 767.325 296.736C766.962 297.867 766.781 299.147 766.781 300.576C766.781 302.453 767.069 304.085 767.645 305.472C768.242 306.859 769.117 307.925 770.269 308.672C771.442 309.419 772.904 309.792 774.653 309.792C775.656 309.792 776.605 309.707 777.501 309.536C778.397 309.365 779.272 309.152 780.125 308.896V311.392C779.272 311.712 778.386 311.947 777.469 312.096C776.573 312.245 775.496 312.32 774.237 312.32C771.912 312.32 769.97 311.84 768.413 310.88C766.856 309.92 765.682 308.555 764.893 306.784C764.125 305.013 763.741 302.933 763.741 300.544C763.741 298.816 763.976 297.237 764.445 295.808C764.936 294.379 765.64 293.141 766.557 292.096C767.496 291.051 768.648 290.251 770.013 289.696C771.378 289.12 772.946 288.832 774.717 288.832C775.89 288.832 777.021 288.949 778.109 289.184C779.197 289.419 780.168 289.749 781.021 290.176L779.869 292.608C779.165 292.288 778.376 292 777.501 291.744C776.648 291.488 775.709 291.36 774.685 291.36ZM801.816 312H798.424L790.328 301.088L787.992 303.136V312H785.112V289.152H787.992V300.416C788.632 299.691 789.282 298.965 789.944 298.24C790.605 297.515 791.266 296.789 791.928 296.064L798.104 289.152H801.464L792.408 299.104L801.816 312ZM817.692 312H804.924V289.152H817.692V291.68H807.804V298.816H817.116V301.312H807.804V309.472H817.692V312ZM840.818 312H837.458L825.234 293.024H825.106C825.127 293.408 825.148 293.835 825.17 294.304C825.212 294.773 825.244 295.285 825.266 295.84C825.287 296.373 825.308 296.928 825.33 297.504C825.351 298.08 825.362 298.656 825.362 299.232V312H822.706V289.152H826.034L838.226 308.064H838.354C838.332 307.808 838.311 307.456 838.29 307.008C838.268 306.539 838.247 306.027 838.226 305.472C838.204 304.896 838.183 304.309 838.162 303.712C838.14 303.115 838.13 302.56 838.13 302.048V289.152H840.818V312ZM865.322 300.352C865.322 302.912 864.842 305.056 863.882 306.784C862.943 308.512 861.589 309.813 859.818 310.688C858.047 311.563 855.903 312 853.386 312H847.018V289.152H854.058C856.362 289.152 858.357 289.579 860.042 290.432C861.727 291.285 863.029 292.544 863.946 294.208C864.863 295.851 865.322 297.899 865.322 300.352ZM862.282 300.448C862.282 298.421 861.941 296.757 861.258 295.456C860.597 294.155 859.615 293.195 858.314 292.576C857.034 291.936 855.477 291.616 853.642 291.616H849.898V309.536H853.002C856.095 309.536 858.41 308.779 859.946 307.264C861.503 305.728 862.282 303.456 862.282 300.448ZM897.01 300.352C897.01 302.912 896.53 305.056 895.57 306.784C894.631 308.512 893.276 309.813 891.506 310.688C889.735 311.563 887.591 312 885.074 312H878.706V289.152H885.746C888.05 289.152 890.044 289.579 891.73 290.432C893.415 291.285 894.716 292.544 895.634 294.208C896.551 295.851 897.01 297.899 897.01 300.352ZM893.97 300.448C893.97 298.421 893.628 296.757 892.946 295.456C892.284 294.155 891.303 293.195 890.002 292.576C888.722 291.936 887.164 291.616 885.33 291.616H881.586V309.536H884.69C887.783 309.536 890.098 308.779 891.634 307.264C893.191 305.728 893.97 303.456 893.97 300.448ZM914.849 312H902.081V289.152H914.849V291.68H904.961V298.816H914.273V301.312H904.961V309.472H914.849V312ZM935.958 289.152L927.798 312H924.918L916.758 289.152H919.766L924.918 303.808C925.152 304.427 925.355 305.024 925.526 305.6C925.696 306.176 925.846 306.731 925.974 307.264C926.123 307.776 926.251 308.288 926.358 308.8C926.464 308.288 926.582 307.765 926.71 307.232C926.859 306.699 927.019 306.144 927.19 305.568C927.382 304.992 927.584 304.384 927.798 303.744L932.918 289.152H935.958ZM951.817 312H939.049V289.152H951.817V291.68H941.929V298.816H951.241V301.312H941.929V309.472H951.817V312ZM956.831 312V289.152H959.711V309.44H969.695V312H956.831ZM992.923 300.544C992.923 302.315 992.699 303.925 992.251 305.376C991.803 306.805 991.131 308.043 990.235 309.088C989.36 310.133 988.261 310.933 986.939 311.488C985.637 312.043 984.123 312.32 982.395 312.32C980.603 312.32 979.045 312.043 977.723 311.488C976.4 310.912 975.301 310.112 974.427 309.088C973.552 308.043 972.901 306.795 972.475 305.344C972.048 303.893 971.835 302.283 971.835 300.512C971.835 298.165 972.219 296.117 972.987 294.368C973.755 292.619 974.917 291.253 976.475 290.272C978.053 289.291 980.037 288.8 982.427 288.8C984.709 288.8 986.629 289.291 988.187 290.272C989.744 291.232 990.917 292.597 991.707 294.368C992.517 296.117 992.923 298.176 992.923 300.544ZM974.875 300.544C974.875 302.464 975.141 304.117 975.675 305.504C976.208 306.891 977.029 307.957 978.139 308.704C979.269 309.451 980.688 309.824 982.395 309.824C984.123 309.824 985.531 309.451 986.619 308.704C987.728 307.957 988.549 306.891 989.083 305.504C989.616 304.117 989.883 302.464 989.883 300.544C989.883 297.664 989.285 295.413 988.091 293.792C986.896 292.149 985.008 291.328 982.427 291.328C980.699 291.328 979.269 291.701 978.139 292.448C977.029 293.173 976.208 294.229 975.675 295.616C975.141 296.981 974.875 298.624 974.875 300.544ZM1004.03 289.152C1007.02 289.152 1009.2 289.739 1010.56 290.912C1011.93 292.085 1012.61 293.739 1012.61 295.872C1012.61 296.811 1012.45 297.717 1012.13 298.592C1011.83 299.445 1011.33 300.213 1010.63 300.896C1009.92 301.579 1008.98 302.123 1007.81 302.528C1006.64 302.912 1005.2 303.104 1003.49 303.104H1000.87V312H997.987V289.152H1004.03ZM1003.78 291.616H1000.87V300.64H1003.17C1004.62 300.64 1005.83 300.491 1006.79 300.192C1007.75 299.872 1008.46 299.371 1008.93 298.688C1009.4 298.005 1009.63 297.109 1009.63 296C1009.63 294.528 1009.17 293.429 1008.23 292.704C1007.29 291.979 1005.81 291.616 1003.78 291.616ZM1030.13 312H1017.36V289.152H1030.13V291.68H1020.24V298.816H1029.55V301.312H1020.24V309.472H1030.13V312ZM1041.45 289.152C1043.35 289.152 1044.9 289.397 1046.12 289.888C1047.36 290.357 1048.27 291.072 1048.87 292.032C1049.47 292.992 1049.77 294.197 1049.77 295.648C1049.77 296.864 1049.54 297.877 1049.1 298.688C1048.65 299.499 1048.07 300.149 1047.37 300.64C1046.68 301.109 1045.96 301.483 1045.19 301.76L1051.46 312H1048.1L1042.57 302.56H1038.02V312H1035.14V289.152H1041.45ZM1041.29 291.648H1038.02V300.128H1041.45C1042.68 300.128 1043.7 299.968 1044.49 299.648C1045.28 299.307 1045.85 298.816 1046.22 298.176C1046.6 297.536 1046.79 296.736 1046.79 295.776C1046.79 294.773 1046.59 293.973 1046.18 293.376C1045.8 292.779 1045.2 292.341 1044.39 292.064C1043.58 291.787 1042.55 291.648 1041.29 291.648ZM1070.3 280.08H1073.36V322.122H1070.3V280.08ZM1113.11 300.352C1113.11 302.912 1112.63 305.056 1111.67 306.784C1110.73 308.512 1109.38 309.813 1107.61 310.688C1105.84 311.563 1103.69 312 1101.18 312H1094.81V289.152H1101.85C1104.15 289.152 1106.15 289.579 1107.83 290.432C1109.52 291.285 1110.82 292.544 1111.74 294.208C1112.65 295.851 1113.11 297.899 1113.11 300.352ZM1110.07 300.448C1110.07 298.421 1109.73 296.757 1109.05 295.456C1108.39 294.155 1107.4 293.195 1106.1 292.576C1104.82 291.936 1103.27 291.616 1101.43 291.616H1097.69V309.536H1100.79C1103.88 309.536 1106.2 308.779 1107.74 307.264C1109.29 305.728 1110.07 303.456 1110.07 300.448ZM1130.95 312H1118.18V289.152H1130.95V291.68H1121.06V298.816H1130.37V301.312H1121.06V309.472H1130.95V312ZM1152.06 289.152L1143.9 312H1141.02L1132.86 289.152H1135.87L1141.02 303.808C1141.25 304.427 1141.46 305.024 1141.63 305.6C1141.8 306.176 1141.95 306.731 1142.08 307.264C1142.22 307.776 1142.35 308.288 1142.46 308.8C1142.57 308.288 1142.68 307.765 1142.81 307.232C1142.96 306.699 1143.12 306.144 1143.29 305.568C1143.48 304.992 1143.69 304.384 1143.9 303.744L1149.02 289.152H1152.06ZM1183.4 300.544C1183.4 302.315 1183.18 303.925 1182.73 305.376C1182.28 306.805 1181.61 308.043 1180.71 309.088C1179.84 310.133 1178.74 310.933 1177.42 311.488C1176.11 312.043 1174.6 312.32 1172.87 312.32C1171.08 312.32 1169.52 312.043 1168.2 311.488C1166.88 310.912 1165.78 310.112 1164.9 309.088C1164.03 308.043 1163.38 306.795 1162.95 305.344C1162.52 303.893 1162.31 302.283 1162.31 300.512C1162.31 298.165 1162.7 296.117 1163.46 294.368C1164.23 292.619 1165.39 291.253 1166.95 290.272C1168.53 289.291 1170.51 288.8 1172.9 288.8C1175.19 288.8 1177.11 289.291 1178.66 290.272C1180.22 291.232 1181.39 292.597 1182.18 294.368C1182.99 296.117 1183.4 298.176 1183.4 300.544ZM1165.35 300.544C1165.35 302.464 1165.62 304.117 1166.15 305.504C1166.68 306.891 1167.51 307.957 1168.62 308.704C1169.75 309.451 1171.16 309.824 1172.87 309.824C1174.6 309.824 1176.01 309.451 1177.1 308.704C1178.2 307.957 1179.03 306.891 1179.56 305.504C1180.09 304.117 1180.36 302.464 1180.36 300.544C1180.36 297.664 1179.76 295.413 1178.57 293.792C1177.37 292.149 1175.48 291.328 1172.9 291.328C1171.18 291.328 1169.75 291.701 1168.62 292.448C1167.51 293.173 1166.68 294.229 1166.15 295.616C1165.62 296.981 1165.35 298.624 1165.35 300.544ZM1194.51 289.152C1197.5 289.152 1199.67 289.739 1201.04 290.912C1202.4 292.085 1203.09 293.739 1203.09 295.872C1203.09 296.811 1202.93 297.717 1202.61 298.592C1202.31 299.445 1201.81 300.213 1201.1 300.896C1200.4 301.579 1199.46 302.123 1198.29 302.528C1197.11 302.912 1195.67 303.104 1193.97 303.104H1191.34V312H1188.46V289.152H1194.51ZM1194.26 291.616H1191.34V300.64H1193.65C1195.1 300.64 1196.3 300.491 1197.26 300.192C1198.22 299.872 1198.94 299.371 1199.41 298.688C1199.88 298.005 1200.11 297.109 1200.11 296C1200.11 294.528 1199.64 293.429 1198.7 292.704C1197.76 291.979 1196.28 291.616 1194.26 291.616ZM1220.8 305.888C1220.8 307.253 1220.47 308.416 1219.81 309.376C1219.15 310.315 1218.2 311.04 1216.96 311.552C1215.74 312.064 1214.3 312.32 1212.64 312.32C1211.79 312.32 1210.96 312.277 1210.17 312.192C1209.41 312.107 1208.7 311.989 1208.06 311.84C1207.42 311.669 1206.86 311.467 1206.37 311.232V308.48C1207.13 308.821 1208.08 309.131 1209.21 309.408C1210.37 309.685 1211.55 309.824 1212.77 309.824C1213.9 309.824 1214.85 309.675 1215.61 309.376C1216.38 309.077 1216.96 308.651 1217.34 308.096C1217.73 307.541 1217.92 306.891 1217.92 306.144C1217.92 305.397 1217.76 304.768 1217.44 304.256C1217.12 303.744 1216.56 303.275 1215.77 302.848C1215.01 302.4 1213.93 301.931 1212.54 301.44C1211.56 301.077 1210.7 300.693 1209.95 300.288C1209.23 299.861 1208.62 299.381 1208.13 298.848C1207.64 298.315 1207.26 297.707 1207.01 297.024C1206.77 296.341 1206.65 295.552 1206.65 294.656C1206.65 293.44 1206.96 292.405 1207.58 291.552C1208.2 290.677 1209.05 290.005 1210.14 289.536C1211.25 289.067 1212.52 288.832 1213.95 288.832C1215.21 288.832 1216.36 288.949 1217.41 289.184C1218.45 289.419 1219.4 289.728 1220.25 290.112L1219.36 292.576C1218.57 292.235 1217.71 291.947 1216.77 291.712C1215.85 291.477 1214.89 291.36 1213.89 291.36C1212.93 291.36 1212.13 291.499 1211.49 291.776C1210.85 292.053 1210.37 292.448 1210.05 292.96C1209.73 293.451 1209.57 294.027 1209.57 294.688C1209.57 295.456 1209.73 296.096 1210.05 296.608C1210.37 297.12 1210.89 297.579 1211.61 297.984C1212.34 298.389 1213.32 298.827 1214.56 299.296C1215.9 299.787 1217.03 300.32 1217.95 300.896C1218.89 301.451 1219.59 302.123 1220.06 302.912C1220.55 303.701 1220.8 304.693 1220.8 305.888Z" fill="#FFFFFF"/>
<path d="M380.795 231L376.375 216.55H354.275L349.855 231H336L357.42 170.055H373.145L394.65 231H380.795ZM368.895 191.645C368.612 190.682 368.243 189.463 367.79 187.99C367.337 186.517 366.883 185.015 366.43 183.485C365.977 181.955 365.608 180.623 365.325 179.49C365.042 180.623 364.645 182.04 364.135 183.74C363.682 185.383 363.228 186.97 362.775 188.5C362.378 189.973 362.067 191.022 361.84 191.645L357.505 205.755H373.315L368.895 191.645ZM456.142 231H439.822L413.387 185.1H413.047C413.103 186.517 413.16 187.962 413.217 189.435C413.273 190.852 413.33 192.297 413.387 193.77C413.5 195.187 413.585 196.632 413.642 198.105C413.698 199.522 413.755 200.967 413.812 202.44V231H402.337V170.31H418.572L444.922 215.785H445.177C445.12 214.368 445.063 212.98 445.007 211.62C444.95 210.203 444.893 208.815 444.837 207.455C444.837 206.038 444.808 204.65 444.752 203.29C444.695 201.873 444.638 200.457 444.582 199.04V170.31H456.142V231ZM494.857 231H482.022V181.02H465.532V170.31H511.347V181.02H494.857V231ZM570.431 231H557.596V204.82H533.541V231H520.706V170.31H533.541V194.11H557.596V170.31H570.431V231ZM640.781 200.57C640.781 205.273 640.186 209.552 638.996 213.405C637.862 217.202 636.106 220.488 633.726 223.265C631.402 226.042 628.399 228.167 624.716 229.64C621.089 231.113 616.811 231.85 611.881 231.85C606.951 231.85 602.644 231.113 598.961 229.64C595.334 228.11 592.331 225.985 589.951 223.265C587.627 220.488 585.871 217.173 584.681 213.32C583.547 209.467 582.981 205.188 582.981 200.485C582.981 194.195 584.001 188.727 586.041 184.08C588.137 179.433 591.311 175.835 595.561 173.285C599.867 170.678 605.336 169.375 611.966 169.375C618.539 169.375 623.951 170.678 628.201 173.285C632.451 175.835 635.596 179.462 637.636 184.165C639.732 188.812 640.781 194.28 640.781 200.57ZM596.496 200.57C596.496 204.82 597.034 208.475 598.111 211.535C599.187 214.595 600.859 216.947 603.126 218.59C605.392 220.233 608.311 221.055 611.881 221.055C615.564 221.055 618.511 220.233 620.721 218.59C622.987 216.947 624.631 214.595 625.651 211.535C626.727 208.475 627.266 204.82 627.266 200.57C627.266 194.167 626.076 189.152 623.696 185.525C621.316 181.898 617.406 180.085 611.966 180.085C608.339 180.085 605.392 180.907 603.126 182.55C600.859 184.193 599.187 186.545 598.111 189.605C597.034 192.665 596.496 196.32 596.496 200.57ZM707.157 231H690.837L664.402 185.1H664.062C664.119 186.517 664.175 187.962 664.232 189.435C664.289 190.852 664.345 192.297 664.402 193.77C664.515 195.187 664.6 196.632 664.657 198.105C664.714 199.522 664.77 200.967 664.827 202.44V231H653.352V170.31H669.587L695.937 215.785H696.192C696.135 214.368 696.079 212.98 696.022 211.62C695.965 210.203 695.909 208.815 695.852 207.455C695.852 206.038 695.824 204.65 695.767 203.29C695.71 201.873 695.654 200.457 695.597 199.04V170.31H707.157V231ZM741.368 195.3L754.033 170.31H767.888L747.743 207.37V231H734.993V207.795L714.848 170.31H728.788L741.368 195.3ZM833.405 214.17C833.405 217.74 832.526 220.857 830.77 223.52C829.013 226.183 826.463 228.252 823.12 229.725C819.833 231.142 815.81 231.85 811.05 231.85C808.953 231.85 806.885 231.708 804.845 231.425C802.861 231.142 800.935 230.745 799.065 230.235C797.251 229.668 795.523 228.988 793.88 228.195V216.21C796.77 217.457 799.745 218.618 802.805 219.695C805.921 220.715 809.01 221.225 812.07 221.225C814.166 221.225 815.838 220.942 817.085 220.375C818.388 219.808 819.323 219.043 819.89 218.08C820.513 217.117 820.825 216.012 820.825 214.765C820.825 213.235 820.286 211.932 819.21 210.855C818.19 209.778 816.801 208.787 815.045 207.88C813.288 206.917 811.276 205.897 809.01 204.82C807.593 204.14 806.063 203.347 804.42 202.44C802.776 201.477 801.19 200.315 799.66 198.955C798.186 197.538 796.968 195.838 796.005 193.855C795.041 191.872 794.56 189.492 794.56 186.715C794.56 183.088 795.381 180 797.025 177.45C798.725 174.843 801.105 172.86 804.165 171.5C807.281 170.14 810.936 169.46 815.13 169.46C818.303 169.46 821.306 169.828 824.14 170.565C827.03 171.302 830.033 172.35 833.15 173.71L828.985 183.74C826.208 182.607 823.715 181.728 821.505 181.105C819.295 180.482 817.028 180.17 814.705 180.17C813.118 180.17 811.758 180.425 810.625 180.935C809.491 181.445 808.613 182.153 807.99 183.06C807.423 183.967 807.14 185.043 807.14 186.29C807.14 187.707 807.565 188.925 808.415 189.945C809.265 190.908 810.54 191.843 812.24 192.75C813.94 193.657 816.065 194.733 818.615 195.98C821.731 197.453 824.366 198.983 826.52 200.57C828.73 202.157 830.43 204.027 831.62 206.18C832.81 208.333 833.405 210.997 833.405 214.17ZM870.191 180.17C867.754 180.17 865.573 180.652 863.646 181.615C861.776 182.578 860.189 183.967 858.886 185.78C857.583 187.537 856.591 189.69 855.911 192.24C855.288 194.79 854.976 197.652 854.976 200.825C854.976 205.132 855.486 208.815 856.506 211.875C857.583 214.878 859.254 217.173 861.521 218.76C863.788 220.347 866.678 221.14 870.191 221.14C872.684 221.14 875.149 220.857 877.586 220.29C880.079 219.723 882.771 218.93 885.661 217.91V228.705C882.998 229.782 880.363 230.575 877.756 231.085C875.149 231.595 872.231 231.85 869.001 231.85C862.768 231.85 857.611 230.575 853.531 228.025C849.508 225.418 846.533 221.792 844.606 217.145C842.679 212.442 841.716 206.973 841.716 200.74C841.716 196.15 842.339 191.957 843.586 188.16C844.833 184.307 846.646 180.992 849.026 178.215C851.463 175.438 854.438 173.285 857.951 171.755C861.521 170.225 865.601 169.46 870.191 169.46C873.194 169.46 876.198 169.857 879.201 170.65C882.261 171.387 885.179 172.407 887.956 173.71L883.791 184.165C881.524 183.088 879.229 182.153 876.906 181.36C874.639 180.567 872.401 180.17 870.191 180.17ZM916.237 170.31C921.734 170.31 926.267 170.99 929.837 172.35C933.407 173.653 936.071 175.665 937.827 178.385C939.584 181.048 940.462 184.42 940.462 188.5C940.462 191.277 939.924 193.713 938.847 195.81C937.827 197.85 936.439 199.607 934.682 201.08C932.982 202.497 931.141 203.658 929.157 204.565L947.007 231H932.727L918.277 207.71H911.392V231H898.557V170.31H916.237ZM915.302 180.85H911.392V197.255H915.557C918.391 197.255 920.686 196.943 922.442 196.32C924.199 195.697 925.474 194.762 926.267 193.515C927.061 192.212 927.457 190.653 927.457 188.84C927.457 186.913 927.004 185.383 926.097 184.25C925.247 183.06 923.916 182.21 922.102 181.7C920.346 181.133 918.079 180.85 915.302 180.85ZM977.366 231H949.741V223.69L957.136 220.29V181.02L949.741 177.62V170.31H977.366V177.62L969.971 181.02V220.29L977.366 223.69V231ZM1013.38 231L998.758 183.4H998.418C998.474 184.533 998.559 186.233 998.673 188.5C998.786 190.767 998.899 193.203 999.013 195.81C999.126 198.36 999.183 200.683 999.183 202.78V231H987.708V170.31H1005.22L1019.58 216.72H1019.84L1035.05 170.31H1052.56V231H1040.58V202.27C1040.58 200.343 1040.61 198.133 1040.66 195.64C1040.78 193.147 1040.86 190.795 1040.92 188.585C1041.03 186.318 1041.12 184.618 1041.17 183.485H1040.83L1025.19 231H1013.38ZM1105.04 231L1100.62 216.55H1078.52L1074.1 231H1060.24L1081.66 170.055H1097.39L1118.89 231H1105.04ZM1093.14 191.645C1092.85 190.682 1092.49 189.463 1092.03 187.99C1091.58 186.517 1091.13 185.015 1090.67 183.485C1090.22 181.955 1089.85 180.623 1089.57 179.49C1089.28 180.623 1088.89 182.04 1088.38 183.74C1087.92 185.383 1087.47 186.97 1087.02 188.5C1086.62 189.973 1086.31 191.022 1086.08 191.645L1081.75 205.755H1097.56L1093.14 191.645ZM1126.58 231V170.31H1139.41V220.375H1164.06V231H1126.58ZM1197.34 231H1169.71V223.69L1177.11 220.29V181.02L1169.71 177.62V170.31H1197.34V177.62L1189.94 181.02V220.29L1197.34 223.69V231Z" fill="#FFFFFF"/>
<path d="M348.642 80.012C351.134 80.012 353.22 80.25 354.9 80.726C356.608 81.202 357.882 81.986 358.722 83.078C359.59 84.17 360.024 85.626 360.024 87.446C360.024 88.622 359.8 89.672 359.352 90.596C358.932 91.492 358.288 92.248 357.42 92.864C356.58 93.452 355.544 93.858 354.312 94.082V94.292C355.572 94.488 356.706 94.852 357.714 95.384C358.75 95.916 359.562 96.672 360.15 97.652C360.738 98.632 361.032 99.906 361.032 101.474C361.032 103.294 360.612 104.848 359.772 106.136C358.932 107.396 357.728 108.362 356.16 109.034C354.62 109.678 352.772 110 350.616 110H340.074V80.012H348.642ZM349.398 92.78C351.974 92.78 353.738 92.374 354.69 91.562C355.642 90.722 356.118 89.49 356.118 87.866C356.118 86.214 355.53 85.038 354.354 84.338C353.206 83.61 351.358 83.246 348.81 83.246H343.854V92.78H349.398ZM343.854 95.93V106.808H349.902C352.562 106.808 354.41 106.29 355.446 105.254C356.482 104.218 357 102.86 357 101.18C357 100.116 356.762 99.192 356.286 98.408C355.838 97.624 355.068 97.022 353.976 96.602C352.912 96.154 351.456 95.93 349.608 95.93H343.854ZM386.458 98.702C386.458 100.578 386.206 102.244 385.702 103.7C385.226 105.128 384.526 106.346 383.602 107.354C382.706 108.362 381.6 109.132 380.284 109.664C378.996 110.168 377.554 110.42 375.958 110.42C374.474 110.42 373.102 110.168 371.842 109.664C370.582 109.132 369.49 108.362 368.566 107.354C367.642 106.346 366.914 105.128 366.382 103.7C365.878 102.244 365.626 100.578 365.626 98.702C365.626 96.21 366.046 94.11 366.886 92.402C367.726 90.666 368.93 89.35 370.498 88.454C372.066 87.53 373.928 87.068 376.084 87.068C378.128 87.068 379.92 87.53 381.46 88.454C383.028 89.35 384.246 90.666 385.114 92.402C386.01 94.11 386.458 96.21 386.458 98.702ZM369.448 98.702C369.448 100.466 369.672 102.006 370.12 103.322C370.596 104.61 371.324 105.604 372.304 106.304C373.284 107.004 374.53 107.354 376.042 107.354C377.554 107.354 378.8 107.004 379.78 106.304C380.76 105.604 381.474 104.61 381.922 103.322C382.398 102.006 382.636 100.466 382.636 98.702C382.636 96.91 382.398 95.384 381.922 94.124C381.446 92.864 380.718 91.898 379.738 91.226C378.786 90.526 377.54 90.176 376 90.176C373.704 90.176 372.038 90.932 371.002 92.444C369.966 93.956 369.448 96.042 369.448 98.702ZM403.152 87.068C405.84 87.068 407.87 87.726 409.242 89.042C410.614 90.33 411.3 92.43 411.3 95.342V110H407.646V95.594C407.646 93.774 407.24 92.416 406.428 91.52C405.616 90.624 404.342 90.176 402.606 90.176C400.114 90.176 398.392 90.876 397.44 92.276C396.488 93.676 396.012 95.692 396.012 98.324V110H392.316V87.488H395.298L395.844 90.554H396.054C396.558 89.77 397.174 89.126 397.902 88.622C398.658 88.09 399.484 87.698 400.38 87.446C401.276 87.194 402.2 87.068 403.152 87.068ZM415.633 120.08C414.933 120.08 414.317 120.024 413.785 119.912C413.253 119.828 412.791 119.716 412.399 119.576V116.594C412.819 116.706 413.253 116.804 413.701 116.888C414.149 116.972 414.639 117.014 415.171 117.014C416.067 117.014 416.809 116.762 417.397 116.258C417.985 115.782 418.279 114.858 418.279 113.486V87.488H421.975V113.36C421.975 114.76 421.751 115.964 421.303 116.972C420.855 117.98 420.169 118.75 419.245 119.282C418.321 119.814 417.117 120.08 415.633 120.08ZM417.985 81.398C417.985 80.586 418.195 79.998 418.615 79.634C419.035 79.242 419.553 79.046 420.169 79.046C420.729 79.046 421.219 79.242 421.639 79.634C422.087 79.998 422.311 80.586 422.311 81.398C422.311 82.182 422.087 82.77 421.639 83.162C421.219 83.554 420.729 83.75 420.169 83.75C419.553 83.75 419.035 83.554 418.615 83.162C418.195 82.77 417.985 82.182 417.985 81.398ZM448.679 98.702C448.679 100.578 448.427 102.244 447.923 103.7C447.447 105.128 446.747 106.346 445.823 107.354C444.927 108.362 443.821 109.132 442.505 109.664C441.217 110.168 439.775 110.42 438.179 110.42C436.695 110.42 435.323 110.168 434.063 109.664C432.803 109.132 431.711 108.362 430.787 107.354C429.863 106.346 429.135 105.128 428.603 103.7C428.099 102.244 427.847 100.578 427.847 98.702C427.847 96.21 428.267 94.11 429.107 92.402C429.947 90.666 431.151 89.35 432.719 88.454C434.287 87.53 436.149 87.068 438.305 87.068C440.349 87.068 442.141 87.53 443.681 88.454C445.249 89.35 446.467 90.666 447.335 92.402C448.231 94.11 448.679 96.21 448.679 98.702ZM431.669 98.702C431.669 100.466 431.893 102.006 432.341 103.322C432.817 104.61 433.545 105.604 434.525 106.304C435.505 107.004 436.751 107.354 438.263 107.354C439.775 107.354 441.021 107.004 442.001 106.304C442.981 105.604 443.695 104.61 444.143 103.322C444.619 102.006 444.857 100.466 444.857 98.702C444.857 96.91 444.619 95.384 444.143 94.124C443.667 92.864 442.939 91.898 441.959 91.226C441.007 90.526 439.761 90.176 438.221 90.176C435.925 90.176 434.259 90.932 433.223 92.444C432.187 93.956 431.669 96.042 431.669 98.702ZM473.353 87.488V110H470.329L469.783 107.018H469.615C469.139 107.802 468.523 108.446 467.767 108.95C467.011 109.454 466.185 109.818 465.289 110.042C464.393 110.294 463.455 110.42 462.475 110.42C460.683 110.42 459.171 110.14 457.939 109.58C456.735 108.992 455.825 108.096 455.209 106.892C454.593 105.688 454.285 104.134 454.285 102.23V87.488H458.023V101.978C458.023 103.77 458.429 105.114 459.241 106.01C460.053 106.906 461.313 107.354 463.021 107.354C464.701 107.354 466.017 107.046 466.969 106.43C467.949 105.786 468.635 104.862 469.027 103.658C469.447 102.426 469.657 100.942 469.657 99.206V87.488H473.353ZM491 87.068C491.42 87.068 491.868 87.096 492.344 87.152C492.848 87.18 493.282 87.236 493.646 87.32L493.184 90.722C492.82 90.638 492.414 90.568 491.966 90.512C491.546 90.456 491.14 90.428 490.748 90.428C489.88 90.428 489.054 90.61 488.27 90.974C487.486 91.338 486.786 91.856 486.17 92.528C485.554 93.172 485.064 93.956 484.7 94.88C484.364 95.804 484.196 96.84 484.196 97.988V110H480.5V87.488H483.524L483.944 91.604H484.112C484.588 90.764 485.162 90.008 485.834 89.336C486.506 88.636 487.276 88.09 488.144 87.698C489.012 87.278 489.964 87.068 491 87.068ZM495.617 105.59C495.365 106.57 495.043 107.634 494.651 108.782C494.259 109.93 493.825 111.064 493.349 112.184C492.901 113.332 492.453 114.41 492.005 115.418H489.275C489.555 114.354 489.821 113.206 490.073 111.974C490.353 110.77 490.605 109.58 490.829 108.404C491.053 107.2 491.235 106.108 491.375 105.128H495.323L495.617 105.59ZM510.625 120.08C509.925 120.08 509.309 120.024 508.777 119.912C508.245 119.828 507.783 119.716 507.391 119.576V116.594C507.811 116.706 508.245 116.804 508.693 116.888C509.141 116.972 509.631 117.014 510.163 117.014C511.059 117.014 511.801 116.762 512.389 116.258C512.977 115.782 513.271 114.858 513.271 113.486V87.488H516.967V113.36C516.967 114.76 516.743 115.964 516.295 116.972C515.847 117.98 515.161 118.75 514.237 119.282C513.313 119.814 512.109 120.08 510.625 120.08ZM512.977 81.398C512.977 80.586 513.187 79.998 513.607 79.634C514.027 79.242 514.545 79.046 515.161 79.046C515.721 79.046 516.211 79.242 516.631 79.634C517.079 79.998 517.303 80.586 517.303 81.398C517.303 82.182 517.079 82.77 516.631 83.162C516.211 83.554 515.721 83.75 515.161 83.75C514.545 83.75 514.027 83.554 513.607 83.162C513.187 82.77 512.977 82.182 512.977 81.398ZM532.793 87.068C534.725 87.068 536.377 87.488 537.749 88.328C539.149 89.168 540.213 90.358 540.941 91.898C541.697 93.41 542.075 95.188 542.075 97.232V99.458H526.661C526.717 102.006 527.361 103.952 528.593 105.296C529.853 106.612 531.603 107.27 533.843 107.27C535.271 107.27 536.531 107.144 537.623 106.892C538.743 106.612 539.891 106.22 541.067 105.716V108.95C539.919 109.454 538.785 109.818 537.665 110.042C536.545 110.294 535.215 110.42 533.675 110.42C531.547 110.42 529.657 109.986 528.005 109.118C526.381 108.25 525.107 106.962 524.183 105.254C523.287 103.518 522.839 101.404 522.839 98.912C522.839 96.448 523.245 94.334 524.057 92.57C524.897 90.806 526.059 89.448 527.543 88.496C529.055 87.544 530.805 87.068 532.793 87.068ZM532.751 90.092C530.987 90.092 529.587 90.666 528.551 91.814C527.543 92.934 526.941 94.502 526.745 96.518H538.211C538.211 95.23 538.015 94.11 537.623 93.158C537.231 92.206 536.629 91.464 535.817 90.932C535.033 90.372 534.011 90.092 532.751 90.092ZM573.374 103.784C573.374 105.24 573.01 106.458 572.282 107.438C571.554 108.418 570.518 109.16 569.174 109.664C567.83 110.168 566.234 110.42 564.386 110.42C562.818 110.42 561.46 110.294 560.312 110.042C559.192 109.79 558.198 109.44 557.33 108.992V105.632C558.226 106.08 559.304 106.5 560.564 106.892C561.852 107.256 563.154 107.438 564.47 107.438C566.346 107.438 567.704 107.144 568.544 106.556C569.384 105.94 569.804 105.128 569.804 104.12C569.804 103.56 569.65 103.056 569.342 102.608C569.034 102.16 568.474 101.712 567.662 101.264C566.878 100.816 565.744 100.312 564.26 99.752C562.804 99.192 561.558 98.632 560.522 98.072C559.486 97.512 558.688 96.84 558.128 96.056C557.568 95.272 557.288 94.264 557.288 93.032C557.288 91.128 558.058 89.658 559.598 88.622C561.166 87.586 563.21 87.068 565.73 87.068C567.102 87.068 568.376 87.208 569.552 87.488C570.756 87.74 571.876 88.104 572.912 88.58L571.652 91.52C571.036 91.24 570.378 91.002 569.678 90.806C569.006 90.582 568.32 90.414 567.62 90.302C566.92 90.162 566.206 90.092 565.478 90.092C563.966 90.092 562.804 90.344 561.992 90.848C561.208 91.324 560.816 91.982 560.816 92.822C560.816 93.438 560.998 93.97 561.362 94.418C561.726 94.838 562.328 95.258 563.168 95.678C564.036 96.07 565.184 96.546 566.612 97.106C568.04 97.638 569.258 98.184 570.266 98.744C571.274 99.304 572.044 99.99 572.576 100.802C573.108 101.586 573.374 102.58 573.374 103.784ZM597.63 87.488V110H594.606L594.06 107.018H593.892C593.416 107.802 592.8 108.446 592.044 108.95C591.288 109.454 590.462 109.818 589.566 110.042C588.67 110.294 587.732 110.42 586.752 110.42C584.96 110.42 583.448 110.14 582.216 109.58C581.012 108.992 580.102 108.096 579.486 106.892C578.87 105.688 578.562 104.134 578.562 102.23V87.488H582.3V101.978C582.3 103.77 582.706 105.114 583.518 106.01C584.33 106.906 585.59 107.354 587.298 107.354C588.978 107.354 590.294 107.046 591.246 106.43C592.226 105.786 592.912 104.862 593.304 103.658C593.724 102.426 593.934 100.942 593.934 99.206V87.488H597.63ZM608.473 87.488V110H604.777V87.488H608.473ZM606.667 79.046C607.227 79.046 607.717 79.242 608.137 79.634C608.585 79.998 608.809 80.586 608.809 81.398C608.809 82.182 608.585 82.77 608.137 83.162C607.717 83.554 607.227 83.75 606.667 83.75C606.051 83.75 605.533 83.554 605.113 83.162C604.693 82.77 604.483 82.182 604.483 81.398C604.483 80.586 604.693 79.998 605.113 79.634C605.533 79.242 606.051 79.046 606.667 79.046ZM630.263 103.784C630.263 105.24 629.899 106.458 629.171 107.438C628.443 108.418 627.407 109.16 626.063 109.664C624.719 110.168 623.123 110.42 621.275 110.42C619.707 110.42 618.349 110.294 617.201 110.042C616.081 109.79 615.087 109.44 614.219 108.992V105.632C615.115 106.08 616.193 106.5 617.453 106.892C618.741 107.256 620.043 107.438 621.359 107.438C623.235 107.438 624.593 107.144 625.433 106.556C626.273 105.94 626.693 105.128 626.693 104.12C626.693 103.56 626.539 103.056 626.231 102.608C625.923 102.16 625.363 101.712 624.551 101.264C623.767 100.816 622.633 100.312 621.149 99.752C619.693 99.192 618.447 98.632 617.411 98.072C616.375 97.512 615.577 96.84 615.017 96.056C614.457 95.272 614.177 94.264 614.177 93.032C614.177 91.128 614.947 89.658 616.487 88.622C618.055 87.586 620.099 87.068 622.619 87.068C623.991 87.068 625.265 87.208 626.441 87.488C627.645 87.74 628.765 88.104 629.801 88.58L628.541 91.52C627.925 91.24 627.267 91.002 626.567 90.806C625.895 90.582 625.209 90.414 624.509 90.302C623.809 90.162 623.095 90.092 622.367 90.092C620.855 90.092 619.693 90.344 618.881 90.848C618.097 91.324 617.705 91.982 617.705 92.822C617.705 93.438 617.887 93.97 618.251 94.418C618.615 94.838 619.217 95.258 620.057 95.678C620.925 96.07 622.073 96.546 623.501 97.106C624.929 97.638 626.147 98.184 627.155 98.744C628.163 99.304 628.933 99.99 629.465 100.802C629.997 101.586 630.263 102.58 630.263 103.784Z" fill="#FFFFFF"/>
<rect y="50" width="300" height="300" rx="34" fill="#3178C6"/>
<path d="M186.24 328L180 307.6H148.8L142.56 328H123L153.24 241.96H175.44L205.8 328H186.24ZM169.44 272.44C169.04 271.08 168.52 269.36 167.88 267.28C167.24 265.2 166.6 263.08 165.96 260.92C165.32 258.76 164.8 256.88 164.4 255.28C164 256.88 163.44 258.88 162.72 261.28C162.08 263.6 161.44 265.84 160.8 268C160.24 270.08 159.8 271.56 159.48 272.44L153.36 292.36H175.68L169.44 272.44ZM267.172 304.24C267.172 309.28 265.932 313.68 263.452 317.44C260.972 321.2 257.372 324.12 252.652 326.2C248.012 328.2 242.332 329.2 235.612 329.2C232.652 329.2 229.732 329 226.852 328.6C224.052 328.2 221.332 327.64 218.692 326.92C216.132 326.12 213.692 325.16 211.372 324.04V307.12C215.452 308.88 219.652 310.52 223.972 312.04C228.372 313.48 232.732 314.2 237.052 314.2C240.012 314.2 242.372 313.8 244.132 313C245.972 312.2 247.292 311.12 248.092 309.76C248.972 308.4 249.412 306.84 249.412 305.08C249.412 302.92 248.652 301.08 247.132 299.56C245.692 298.04 243.732 296.64 241.252 295.36C238.772 294 235.932 292.56 232.732 291.04C230.732 290.08 228.572 288.96 226.252 287.68C223.932 286.32 221.692 284.68 219.532 282.76C217.452 280.76 215.732 278.36 214.372 275.56C213.012 272.76 212.332 269.4 212.332 265.48C212.332 260.36 213.492 256 215.812 252.4C218.212 248.72 221.572 245.92 225.892 244C230.292 242.08 235.452 241.12 241.372 241.12C245.852 241.12 250.092 241.64 254.092 242.68C258.172 243.72 262.412 245.2 266.812 247.12L260.932 261.28C257.012 259.68 253.492 258.44 250.372 257.56C247.252 256.68 244.052 256.24 240.772 256.24C238.532 256.24 236.612 256.6 235.012 257.32C233.412 258.04 232.172 259.04 231.292 260.32C230.492 261.6 230.092 263.12 230.092 264.88C230.092 266.88 230.692 268.6 231.892 270.04C233.092 271.4 234.892 272.72 237.292 274C239.692 275.28 242.692 276.8 246.292 278.56C250.692 280.64 254.412 282.8 257.452 285.04C260.572 287.28 262.972 289.92 264.652 292.96C266.332 296 267.172 299.76 267.172 304.24Z" fill="white"/>
</svg>
