<svg width="1250" height="400" viewBox="0 0 1250 400" fill="none" xmlns="http://www.w3.org/2000/svg">
<g clip-path="url(#clip0_0_1)">
<path d="M388.288 179L372.819 128.595H372.424C372.482 129.796 372.57 131.612 372.688 134.044C372.834 136.446 372.966 139.01 373.083 141.734C373.2 144.459 373.259 146.92 373.259 149.117V179H361.086V114.752H379.631L394.836 163.883H395.1L411.228 114.752H429.772V179H417.072V148.59C417.072 146.568 417.102 144.239 417.16 141.603C417.248 138.966 417.351 136.461 417.468 134.088C417.585 131.686 417.673 129.884 417.731 128.683H417.336L400.769 179H388.288ZM465.192 128.946C469.733 128.946 473.645 129.825 476.926 131.583C480.207 133.312 482.741 135.831 484.528 139.142C486.315 142.452 487.209 146.495 487.209 151.271V157.774H455.524C455.671 161.554 456.799 164.527 458.908 166.695C461.047 168.834 464.006 169.903 467.785 169.903C470.92 169.903 473.791 169.581 476.398 168.937C479.006 168.292 481.687 167.325 484.44 166.036V176.407C482.009 177.608 479.46 178.487 476.794 179.044C474.157 179.601 470.949 179.879 467.17 179.879C462.248 179.879 457.883 178.971 454.074 177.154C450.295 175.338 447.321 172.569 445.153 168.849C443.015 165.128 441.945 160.44 441.945 154.786C441.945 149.044 442.912 144.269 444.846 140.46C446.809 136.622 449.533 133.751 453.02 131.847C456.506 129.913 460.563 128.946 465.192 128.946ZM465.28 138.482C462.673 138.482 460.505 139.317 458.776 140.987C457.077 142.657 456.096 145.279 455.832 148.854H474.641C474.611 146.861 474.245 145.089 473.542 143.536C472.868 141.983 471.843 140.753 470.466 139.845C469.118 138.937 467.39 138.482 465.28 138.482ZM518.806 169.2C520.271 169.2 521.691 169.054 523.068 168.761C524.475 168.468 525.866 168.102 527.243 167.662V177.638C525.808 178.282 524.021 178.81 521.882 179.22C519.772 179.659 517.458 179.879 514.938 179.879C512.009 179.879 509.372 179.41 507.028 178.473C504.714 177.506 502.883 175.851 501.535 173.507C500.217 171.134 499.558 167.838 499.558 163.619V139.933H493.142V134.264L500.524 129.781L504.392 119.41H512.961V129.869H526.716V139.933H512.961V163.619C512.961 165.494 513.488 166.9 514.543 167.838C515.627 168.746 517.048 169.2 518.806 169.2ZM557.346 128.858C563.938 128.858 568.991 130.294 572.507 133.165C576.022 136.036 577.78 140.401 577.78 146.261V179H568.42L565.827 172.32H565.476C564.069 174.078 562.634 175.514 561.169 176.627C559.704 177.74 558.02 178.561 556.115 179.088C554.211 179.615 551.896 179.879 549.172 179.879C546.271 179.879 543.664 179.322 541.35 178.209C539.064 177.096 537.263 175.396 535.944 173.111C534.626 170.797 533.967 167.867 533.967 164.322C533.967 159.107 535.798 155.27 539.46 152.809C543.122 150.318 548.615 148.941 555.939 148.678L564.465 148.414V146.261C564.465 143.683 563.791 141.793 562.443 140.592C561.096 139.391 559.221 138.79 556.818 138.79C554.445 138.79 552.116 139.127 549.831 139.801C547.546 140.475 545.261 141.324 542.976 142.35L538.537 133.297C541.145 131.92 544.06 130.836 547.282 130.045C550.534 129.254 553.889 128.858 557.346 128.858ZM564.465 156.236L559.279 156.412C554.943 156.529 551.926 157.306 550.227 158.741C548.557 160.177 547.722 162.066 547.722 164.41C547.722 166.461 548.322 167.926 549.523 168.805C550.725 169.654 552.292 170.079 554.226 170.079C557.097 170.079 559.514 169.229 561.477 167.53C563.469 165.831 564.465 163.414 564.465 160.279V156.236ZM634.777 114.752C640.607 114.752 645.412 115.455 649.191 116.861C653 118.268 655.827 120.392 657.673 123.233C659.519 126.075 660.441 129.664 660.441 134C660.441 136.93 659.885 139.493 658.771 141.69C657.658 143.888 656.193 145.748 654.377 147.271C652.561 148.795 650.598 150.04 648.488 151.007L667.385 179H652.268L636.931 154.347H629.68V179H616.057V114.752H634.777ZM633.811 125.914H629.68V143.272H634.074C638.586 143.272 641.809 142.525 643.742 141.031C645.705 139.508 646.687 137.281 646.687 134.352C646.687 131.305 645.632 129.137 643.522 127.848C641.442 126.559 638.205 125.914 633.811 125.914ZM694.675 128.946C699.216 128.946 703.127 129.825 706.408 131.583C709.689 133.312 712.224 135.831 714.011 139.142C715.798 142.452 716.691 146.495 716.691 151.271V157.774H685.007C685.153 161.554 686.281 164.527 688.391 166.695C690.529 168.834 693.488 169.903 697.268 169.903C700.402 169.903 703.273 169.581 705.881 168.937C708.488 168.292 711.169 167.325 713.923 166.036V176.407C711.491 177.608 708.942 178.487 706.276 179.044C703.64 179.601 700.432 179.879 696.652 179.879C691.73 179.879 687.365 178.971 683.557 177.154C679.777 175.338 676.804 172.569 674.636 168.849C672.497 165.128 671.428 160.44 671.428 154.786C671.428 149.044 672.395 144.269 674.328 140.46C676.291 136.622 679.016 133.751 682.502 131.847C685.988 129.913 690.046 128.946 694.675 128.946ZM694.763 138.482C692.155 138.482 689.987 139.317 688.259 140.987C686.56 142.657 685.578 145.279 685.314 148.854H704.123C704.094 146.861 703.728 145.089 703.024 143.536C702.351 141.983 701.325 140.753 699.948 139.845C698.601 138.937 696.872 138.482 694.763 138.482ZM747.717 128.858C754.309 128.858 759.362 130.294 762.878 133.165C766.394 136.036 768.151 140.401 768.151 146.261V179H758.791L756.198 172.32H755.847C754.44 174.078 753.005 175.514 751.54 176.627C750.075 177.74 748.391 178.561 746.486 179.088C744.582 179.615 742.268 179.879 739.543 179.879C736.643 179.879 734.035 179.322 731.721 178.209C729.436 177.096 727.634 175.396 726.315 173.111C724.997 170.797 724.338 167.867 724.338 164.322C724.338 159.107 726.169 155.27 729.831 152.809C733.493 150.318 738.986 148.941 746.311 148.678L754.836 148.414V146.261C754.836 143.683 754.162 141.793 752.814 140.592C751.467 139.391 749.592 138.79 747.189 138.79C744.816 138.79 742.487 139.127 740.202 139.801C737.917 140.475 735.632 141.324 733.347 142.35L728.908 133.297C731.516 131.92 734.431 130.836 737.653 130.045C740.905 129.254 744.26 128.858 747.717 128.858ZM754.836 156.236L749.65 156.412C745.314 156.529 742.297 157.306 740.598 158.741C738.928 160.177 738.093 162.066 738.093 164.41C738.093 166.461 738.693 167.926 739.895 168.805C741.096 169.654 742.663 170.079 744.597 170.079C747.468 170.079 749.885 169.229 751.848 167.53C753.84 165.831 754.836 163.414 754.836 160.279V156.236ZM801.945 179.879C797.082 179.879 792.937 179 789.509 177.242C786.081 175.455 783.474 172.701 781.687 168.98C779.899 165.26 779.006 160.499 779.006 154.698C779.006 148.692 780.017 143.8 782.038 140.021C784.089 136.212 786.916 133.414 790.52 131.627C794.152 129.84 798.356 128.946 803.132 128.946C806.53 128.946 809.46 129.283 811.921 129.957C814.411 130.602 816.579 131.378 818.425 132.286L814.47 142.657C812.36 141.808 810.397 141.119 808.581 140.592C806.765 140.035 804.948 139.757 803.132 139.757C800.788 139.757 798.84 140.313 797.287 141.427C795.734 142.511 794.577 144.151 793.815 146.349C793.054 148.546 792.673 151.3 792.673 154.61C792.673 157.862 793.083 160.558 793.903 162.696C794.724 164.835 795.91 166.432 797.463 167.486C799.016 168.512 800.905 169.024 803.132 169.024C805.915 169.024 808.391 168.658 810.559 167.926C812.727 167.164 814.836 166.109 816.887 164.762V176.231C814.836 177.521 812.683 178.443 810.427 179C808.2 179.586 805.373 179.879 801.945 179.879ZM849.011 169.2C850.476 169.2 851.896 169.054 853.273 168.761C854.68 168.468 856.071 168.102 857.448 167.662V177.638C856.013 178.282 854.226 178.81 852.087 179.22C849.978 179.659 847.663 179.879 845.144 179.879C842.214 179.879 839.577 179.41 837.233 178.473C834.919 177.506 833.088 175.851 831.74 173.507C830.422 171.134 829.763 167.838 829.763 163.619V139.933H823.347V134.264L830.729 129.781L834.597 119.41H843.166V129.869H856.921V139.933H843.166V163.619C843.166 165.494 843.693 166.9 844.748 167.838C845.832 168.746 847.253 169.2 849.011 169.2ZM891.857 114.752H911.853C920.407 114.752 926.882 115.953 931.276 118.355C935.671 120.758 937.868 124.977 937.868 131.012C937.868 133.443 937.473 135.641 936.682 137.604C935.92 139.566 934.807 141.178 933.342 142.438C931.877 143.697 930.09 144.518 927.98 144.898V145.338C930.119 145.777 932.053 146.539 933.781 147.623C935.51 148.678 936.887 150.23 937.912 152.281C938.967 154.303 939.494 156.998 939.494 160.367C939.494 164.264 938.542 167.604 936.638 170.387C934.733 173.17 932.009 175.309 928.464 176.803C924.948 178.268 920.759 179 915.896 179H891.857V114.752ZM905.48 140.196H913.391C917.346 140.196 920.085 139.581 921.608 138.351C923.132 137.091 923.894 135.245 923.894 132.813C923.894 130.353 922.985 128.595 921.169 127.54C919.382 126.456 916.54 125.914 912.644 125.914H905.48V140.196ZM905.48 151.007V167.75H914.357C918.459 167.75 921.315 166.959 922.927 165.377C924.538 163.795 925.344 161.671 925.344 159.005C925.344 157.423 924.992 156.031 924.289 154.83C923.586 153.629 922.399 152.691 920.729 152.018C919.089 151.344 916.818 151.007 913.918 151.007H905.48ZM971.398 128.858C977.99 128.858 983.044 130.294 986.56 133.165C990.075 136.036 991.833 140.401 991.833 146.261V179H982.473L979.88 172.32H979.528C978.122 174.078 976.687 175.514 975.222 176.627C973.757 177.74 972.072 178.561 970.168 179.088C968.264 179.615 965.949 179.879 963.225 179.879C960.324 179.879 957.717 179.322 955.402 178.209C953.117 177.096 951.315 175.396 949.997 173.111C948.679 170.797 948.02 167.867 948.02 164.322C948.02 159.107 949.851 155.27 953.513 152.809C957.175 150.318 962.668 148.941 969.992 148.678L978.518 148.414V146.261C978.518 143.683 977.844 141.793 976.496 140.592C975.148 139.391 973.273 138.79 970.871 138.79C968.498 138.79 966.169 139.127 963.884 139.801C961.599 140.475 959.313 141.324 957.028 142.35L952.59 133.297C955.197 131.92 958.112 130.836 961.335 130.045C964.587 129.254 967.941 128.858 971.398 128.858ZM978.518 156.236L973.332 156.412C968.996 156.529 965.979 157.306 964.279 158.741C962.609 160.177 961.774 162.066 961.774 164.41C961.774 166.461 962.375 167.926 963.576 168.805C964.777 169.654 966.345 170.079 968.278 170.079C971.149 170.079 973.566 169.229 975.529 167.53C977.521 165.831 978.518 163.414 978.518 160.279V156.236ZM1039.95 164.41C1039.95 167.75 1039.16 170.577 1037.58 172.892C1036.03 175.177 1033.7 176.92 1030.59 178.121C1027.49 179.293 1023.62 179.879 1018.99 179.879C1015.56 179.879 1012.62 179.659 1010.16 179.22C1007.73 178.78 1005.27 178.048 1002.78 177.022V165.948C1005.44 167.149 1008.3 168.146 1011.34 168.937C1014.42 169.698 1017.12 170.079 1019.43 170.079C1022.04 170.079 1023.9 169.698 1025.01 168.937C1026.15 168.146 1026.73 167.12 1026.73 165.86C1026.73 165.04 1026.49 164.308 1026.02 163.663C1025.58 162.989 1024.62 162.242 1023.12 161.422C1021.63 160.572 1019.28 159.474 1016.09 158.126C1013.01 156.837 1010.48 155.533 1008.49 154.215C1006.53 152.896 1005.06 151.344 1004.09 149.557C1003.16 147.74 1002.69 145.44 1002.69 142.657C1002.69 138.116 1004.45 134.703 1007.96 132.418C1011.51 130.104 1016.24 128.946 1022.16 128.946C1025.2 128.946 1028.1 129.254 1030.86 129.869C1033.64 130.484 1036.5 131.466 1039.43 132.813L1035.38 142.481C1032.95 141.427 1030.65 140.562 1028.48 139.889C1026.34 139.215 1024.16 138.878 1021.94 138.878C1019.97 138.878 1018.49 139.142 1017.5 139.669C1016.5 140.196 1016 141.002 1016 142.086C1016 142.877 1016.25 143.58 1016.75 144.195C1017.28 144.811 1018.27 145.499 1019.74 146.261C1021.23 146.993 1023.42 147.945 1026.29 149.117C1029.07 150.26 1031.49 151.461 1033.54 152.721C1035.59 153.951 1037.17 155.489 1038.28 157.335C1039.4 159.151 1039.95 161.51 1039.95 164.41ZM1063.82 129.869V179H1050.41V129.869H1063.82ZM1057.14 110.621C1059.13 110.621 1060.84 111.09 1062.28 112.027C1063.71 112.936 1064.43 114.649 1064.43 117.169C1064.43 119.659 1063.71 121.388 1062.28 122.354C1060.84 123.292 1059.13 123.761 1057.14 123.761C1055.11 123.761 1053.39 123.292 1051.95 122.354C1050.54 121.388 1049.84 119.659 1049.84 117.169C1049.84 114.649 1050.54 112.936 1051.95 112.027C1053.39 111.09 1055.11 110.621 1057.14 110.621ZM1097.87 179.879C1093.01 179.879 1088.86 179 1085.44 177.242C1082.01 175.455 1079.4 172.701 1077.61 168.98C1075.83 165.26 1074.93 160.499 1074.93 154.698C1074.93 148.692 1075.94 143.8 1077.97 140.021C1080.02 136.212 1082.84 133.414 1086.45 131.627C1090.08 129.84 1094.28 128.946 1099.06 128.946C1102.46 128.946 1105.39 129.283 1107.85 129.957C1110.34 130.602 1112.51 131.378 1114.35 132.286L1110.4 142.657C1108.29 141.808 1106.33 141.119 1104.51 140.592C1102.69 140.035 1100.88 139.757 1099.06 139.757C1096.72 139.757 1094.77 140.313 1093.21 141.427C1091.66 142.511 1090.5 144.151 1089.74 146.349C1088.98 148.546 1088.6 151.3 1088.6 154.61C1088.6 157.862 1089.01 160.558 1089.83 162.696C1090.65 164.835 1091.84 166.432 1093.39 167.486C1094.94 168.512 1096.83 169.024 1099.06 169.024C1101.84 169.024 1104.32 168.658 1106.49 167.926C1108.65 167.164 1110.76 166.109 1112.81 164.762V176.231C1110.76 177.521 1108.61 178.443 1106.35 179C1104.13 179.586 1101.3 179.879 1097.87 179.879ZM1158.52 164.41C1158.52 167.75 1157.73 170.577 1156.14 172.892C1154.59 175.177 1152.26 176.92 1149.16 178.121C1146.05 179.293 1142.18 179.879 1137.56 179.879C1134.13 179.879 1131.18 179.659 1128.72 179.22C1126.29 178.78 1123.83 178.048 1121.34 177.022V165.948C1124.01 167.149 1126.86 168.146 1129.91 168.937C1132.99 169.698 1135.68 170.079 1138 170.079C1140.6 170.079 1142.46 169.698 1143.58 168.937C1144.72 168.146 1145.29 167.12 1145.29 165.86C1145.29 165.04 1145.06 164.308 1144.59 163.663C1144.15 162.989 1143.18 162.242 1141.69 161.422C1140.19 160.572 1137.85 159.474 1134.66 158.126C1131.58 156.837 1129.04 155.533 1127.05 154.215C1125.09 152.896 1123.62 151.344 1122.66 149.557C1121.72 147.74 1121.25 145.44 1121.25 142.657C1121.25 138.116 1123.01 134.703 1126.53 132.418C1130.07 130.104 1134.8 128.946 1140.72 128.946C1143.77 128.946 1146.67 129.254 1149.42 129.869C1152.2 130.484 1155.06 131.466 1157.99 132.813L1153.95 142.481C1151.52 141.427 1149.22 140.562 1147.05 139.889C1144.91 139.215 1142.73 138.878 1140.5 138.878C1138.54 138.878 1137.06 139.142 1136.06 139.669C1135.07 140.196 1134.57 141.002 1134.57 142.086C1134.57 142.877 1134.82 143.58 1135.31 144.195C1135.84 144.811 1136.84 145.499 1138.3 146.261C1139.8 146.993 1141.98 147.945 1144.85 149.117C1147.63 150.26 1150.05 151.461 1152.1 152.721C1154.15 153.951 1155.73 155.489 1156.85 157.335C1157.96 159.151 1158.52 161.51 1158.52 164.41Z" fill="#FFFFFF"/>
<path d="M597.376 283.167C594.769 283.167 592.454 283.68 590.433 284.705C588.44 285.701 586.756 287.151 585.379 289.056C584.031 290.96 583.006 293.26 582.303 295.955C581.6 298.65 581.248 301.683 581.248 305.052C581.248 309.593 581.805 313.475 582.918 316.697C584.061 319.891 585.818 322.337 588.191 324.036C590.564 325.706 593.626 326.541 597.376 326.541C599.983 326.541 602.591 326.248 605.198 325.662C607.835 325.076 610.691 324.241 613.768 323.157V334.583C610.926 335.755 608.128 336.59 605.374 337.088C602.62 337.615 599.529 337.879 596.102 337.879C589.48 337.879 584.031 336.517 579.754 333.792C575.506 331.038 572.356 327.2 570.306 322.278C568.255 317.327 567.229 311.556 567.229 304.964C567.229 300.101 567.889 295.647 569.207 291.604C570.525 287.562 572.459 284.061 575.008 281.102C577.557 278.143 580.706 275.857 584.456 274.246C588.206 272.635 592.513 271.829 597.376 271.829C600.569 271.829 603.763 272.239 606.956 273.06C610.179 273.851 613.255 274.949 616.185 276.355L611.79 287.43C609.388 286.287 606.971 285.291 604.539 284.441C602.107 283.592 599.72 283.167 597.376 283.167ZM646.683 286.946C651.224 286.946 655.135 287.825 658.416 289.583C661.697 291.312 664.231 293.831 666.019 297.142C667.806 300.452 668.699 304.495 668.699 309.271V315.774H637.015C637.161 319.554 638.289 322.527 640.398 324.695C642.537 326.834 645.496 327.903 649.275 327.903C652.41 327.903 655.281 327.581 657.889 326.937C660.496 326.292 663.177 325.325 665.931 324.036V334.407C663.499 335.608 660.95 336.487 658.284 337.044C655.647 337.601 652.439 337.879 648.66 337.879C643.738 337.879 639.373 336.971 635.564 335.154C631.785 333.338 628.812 330.569 626.644 326.849C624.505 323.128 623.436 318.44 623.436 312.786C623.436 307.044 624.402 302.269 626.336 298.46C628.299 294.622 631.023 291.751 634.51 289.847C637.996 287.913 642.054 286.946 646.683 286.946ZM646.771 296.482C644.163 296.482 641.995 297.317 640.267 298.987C638.567 300.657 637.586 303.279 637.322 306.854H656.131C656.102 304.861 655.735 303.089 655.032 301.536C654.358 299.983 653.333 298.753 651.956 297.845C650.608 296.937 648.88 296.482 646.771 296.482ZM707.02 286.946C707.693 286.946 708.47 286.99 709.349 287.078C710.257 287.137 710.989 287.225 711.546 287.342L710.535 299.91C710.096 299.764 709.466 299.661 708.646 299.603C707.854 299.515 707.166 299.471 706.58 299.471C704.852 299.471 703.167 299.69 701.526 300.13C699.915 300.569 698.465 301.287 697.176 302.283C695.887 303.25 694.861 304.539 694.1 306.15C693.367 307.732 693.001 309.681 693.001 311.995V337H679.598V287.869H689.749L691.727 296.131H692.386C693.353 294.461 694.554 292.938 695.989 291.561C697.454 290.154 699.109 289.041 700.955 288.221C702.83 287.371 704.852 286.946 707.02 286.946ZM741.165 327.2C742.63 327.2 744.051 327.054 745.428 326.761C746.834 326.468 748.226 326.102 749.603 325.662V335.638C748.167 336.282 746.38 336.81 744.241 337.22C742.132 337.659 739.817 337.879 737.298 337.879C734.368 337.879 731.731 337.41 729.388 336.473C727.073 335.506 725.242 333.851 723.895 331.507C722.576 329.134 721.917 325.838 721.917 321.619V297.933H715.501V292.264L722.884 287.781L726.751 277.41H735.32V287.869H749.075V297.933H735.32V321.619C735.32 323.494 735.848 324.9 736.902 325.838C737.986 326.746 739.407 327.2 741.165 327.2ZM772.981 287.869V337H759.578V287.869H772.981ZM766.302 268.621C768.294 268.621 770.008 269.09 771.443 270.027C772.879 270.936 773.597 272.649 773.597 275.169C773.597 277.659 772.879 279.388 771.443 280.354C770.008 281.292 768.294 281.761 766.302 281.761C764.28 281.761 762.552 281.292 761.116 280.354C759.71 279.388 759.007 277.659 759.007 275.169C759.007 272.649 759.71 270.936 761.116 270.027C762.552 269.09 764.28 268.621 766.302 268.621ZM814.246 297.933H802.645V337H789.241V297.933H781.858V291.473L789.241 287.869V284.266C789.241 280.076 789.944 276.824 791.351 274.51C792.786 272.166 794.793 270.525 797.371 269.588C799.979 268.621 803.055 268.138 806.6 268.138C809.207 268.138 811.58 268.357 813.719 268.797C815.857 269.207 817.601 269.676 818.948 270.203L815.521 280.047C814.495 279.725 813.382 279.432 812.181 279.168C810.979 278.904 809.603 278.772 808.05 278.772C806.175 278.772 804.798 279.344 803.919 280.486C803.069 281.6 802.645 283.035 802.645 284.793V287.869H814.246V297.933ZM835.34 287.869V337H821.937V287.869H835.34ZM828.66 268.621C830.652 268.621 832.366 269.09 833.802 270.027C835.237 270.936 835.955 272.649 835.955 275.169C835.955 277.659 835.237 279.388 833.802 280.354C832.366 281.292 830.652 281.761 828.66 281.761C826.639 281.761 824.91 281.292 823.475 280.354C822.068 279.388 821.365 277.659 821.365 275.169C821.365 272.649 822.068 270.936 823.475 270.027C824.91 269.09 826.639 268.621 828.66 268.621ZM869.661 286.946C874.202 286.946 878.113 287.825 881.395 289.583C884.676 291.312 887.21 293.831 888.997 297.142C890.784 300.452 891.678 304.495 891.678 309.271V315.774H859.993C860.14 319.554 861.268 322.527 863.377 324.695C865.516 326.834 868.475 327.903 872.254 327.903C875.389 327.903 878.26 327.581 880.867 326.937C883.475 326.292 886.155 325.325 888.909 324.036V334.407C886.478 335.608 883.929 336.487 881.263 337.044C878.626 337.601 875.418 337.879 871.639 337.879C866.717 337.879 862.352 336.971 858.543 335.154C854.764 333.338 851.79 330.569 849.622 326.849C847.483 323.128 846.414 318.44 846.414 312.786C846.414 307.044 847.381 302.269 849.314 298.46C851.277 294.622 854.002 291.751 857.488 289.847C860.975 287.913 865.032 286.946 869.661 286.946ZM869.749 296.482C867.142 296.482 864.974 297.317 863.245 298.987C861.546 300.657 860.564 303.279 860.301 306.854H879.109C879.08 304.861 878.714 303.089 878.011 301.536C877.337 299.983 876.312 298.753 874.935 297.845C873.587 296.937 871.858 296.482 869.749 296.482ZM918.133 337.879C912.654 337.879 908.187 335.74 904.729 331.463C901.302 327.156 899.588 320.843 899.588 312.522C899.588 304.114 901.331 297.757 904.817 293.45C908.304 289.114 912.859 286.946 918.484 286.946C920.828 286.946 922.894 287.269 924.681 287.913C926.468 288.558 928.006 289.422 929.295 290.506C930.613 291.59 931.727 292.806 932.635 294.153H933.074C932.898 293.216 932.679 291.839 932.415 290.022C932.181 288.177 932.063 286.287 932.063 284.354V268.621H945.511V337H935.228L932.635 330.628H932.063C931.214 331.976 930.145 333.206 928.855 334.319C927.596 335.403 926.087 336.268 924.329 336.912C922.571 337.557 920.506 337.879 918.133 337.879ZM922.835 327.2C926.497 327.2 929.075 326.116 930.569 323.948C932.093 321.751 932.898 318.455 932.986 314.061V312.61C932.986 307.835 932.254 304.188 930.789 301.668C929.324 299.119 926.6 297.845 922.615 297.845C919.656 297.845 917.342 299.119 915.672 301.668C914.002 304.217 913.167 307.894 913.167 312.698C913.167 317.503 914.002 321.121 915.672 323.553C917.371 325.984 919.759 327.2 922.835 327.2Z" fill="#FFFFFF"/>
<path opacity="0.8" d="M387.178 228.238H349.824V222.086H387.178V228.238ZM424.18 228.238H386.826V222.086H424.18V228.238ZM461.182 228.238H423.828V222.086H461.182V228.238ZM498.184 228.238H460.83V222.086H498.184V228.238ZM535.186 228.238H497.832V222.086H535.186V228.238ZM572.188 228.238H534.834V222.086H572.188V228.238ZM609.189 228.238H571.836V222.086H609.189V228.238ZM646.191 228.238H608.838V222.086H646.191V228.238ZM683.193 228.238H645.84V222.086H683.193V228.238ZM720.195 228.238H682.842V222.086H720.195V228.238ZM757.197 228.238H719.844V222.086H757.197V228.238ZM794.199 228.238H756.846V222.086H794.199V228.238ZM831.201 228.238H793.848V222.086H831.201V228.238ZM868.203 228.238H830.85V222.086H868.203V228.238ZM905.205 228.238H867.852V222.086H905.205V228.238ZM942.207 228.238H904.854V222.086H942.207V228.238ZM979.209 228.238H941.855V222.086H979.209V228.238ZM1016.21 228.238H978.857V222.086H1016.21V228.238ZM1053.21 228.238H1015.86V222.086H1053.21V228.238ZM1090.21 228.238H1052.86V222.086H1090.21V228.238ZM1127.22 228.238H1089.86V222.086H1127.22V228.238ZM1164.22 228.238H1126.87V222.086H1164.22V228.238Z" fill="#FFFFFF"/>
<path d="M170 255.371C256.402 255.371 326.445 230.581 326.445 200C326.445 169.419 256.402 144.629 170 144.629C83.5976 144.629 13.5547 169.419 13.5547 200C13.5547 230.581 83.5976 255.371 170 255.371Z" stroke="#61DAFB" stroke-width="15"/>
<path d="M122.047 227.686C165.248 302.512 221.739 350.776 248.222 335.486C274.706 320.195 261.154 247.141 217.953 172.314C174.751 97.4878 118.261 49.2241 91.7771 64.5144C65.2935 79.8047 78.8458 152.859 122.047 227.686Z" stroke="#61DAFB" stroke-width="15"/>
<path d="M217.953 227.686C261.154 152.859 274.706 79.8048 248.223 64.5145C221.739 49.2242 165.248 97.4879 122.047 172.315C78.8461 247.141 65.2938 320.195 91.7774 335.486C118.261 350.776 174.752 302.512 217.953 227.686Z" stroke="#61DAFB" stroke-width="15"/>
<path d="M170 228.125C185.533 228.125 198.125 215.533 198.125 200C198.125 184.467 185.533 171.875 170 171.875C154.467 171.875 141.875 184.467 141.875 200C141.875 215.533 154.467 228.125 170 228.125Z" fill="#61DAFB"/>
</g>
<defs>
<clipPath id="clip0_0_1">
<rect width="1250" height="400"/>
</clipPath>
</defs>
</svg>
